<svg width="151" height="151" viewBox="0 0 151 151" fill="none" xmlns="http://www.w3.org/2000/svg">
<path d="M113.483 71.3996C113.127 71.3942 112.782 71.5229 112.517 71.7602C112.252 71.9975 112.086 72.3259 112.052 72.6801C112.08 73.0141 112.227 73.327 112.466 73.562C112.705 73.7969 113.02 73.9383 113.355 73.9606C114.922 73.9531 115.185 71.392 113.483 71.3996Z" fill="white"/>
<path d="M99.7053 74.4816C99.8786 74.0673 99.6225 73.8413 98.4399 73.299C97.9729 73.0806 97.8976 73.186 96.3308 76.8618C96.0747 77.4569 97.0313 77.6151 97.89 77.9766C98.3043 77.6226 98.2064 78.0896 99.7053 74.4816Z" fill="white"/>
<path d="M104.481 85.2592C105.076 86.4568 105.001 86.7656 105.588 86.3664C107.162 85.3797 107.095 85.1462 107.178 85.794C107.464 87.4134 107.486 87.7599 108.081 87.5867C109.482 87.1875 109.505 87.4511 109.588 86.4192C108.94 81.847 108.737 81.4628 108.164 81.8997C104.247 84.9202 104.225 84.7545 104.481 85.2592Z" fill="white"/>
<path d="M107.427 71.4678C107.415 71.1819 107.301 70.9099 107.104 70.7022C106.907 70.4944 106.642 70.365 106.357 70.3379C106.057 70.3959 105.782 70.5437 105.568 70.7617C105.355 70.9796 105.212 71.2573 105.16 71.5581C105.146 71.8451 105.24 72.1267 105.424 72.3472C105.609 72.5676 105.869 72.7108 106.154 72.7483C106.48 72.7109 106.783 72.5638 107.015 72.3311C107.246 72.0984 107.391 71.7939 107.427 71.4678Z" fill="white"/>
<path d="M118.032 82.1044C118.016 81.781 117.892 81.4723 117.678 81.2287C117.465 80.9852 117.175 80.8213 116.857 80.7637C116.494 80.7675 116.145 80.8986 115.869 81.1341C115.594 81.3696 115.41 81.6944 115.35 82.0517C115.378 82.3839 115.528 82.6939 115.772 82.9219C116.015 83.1499 116.334 83.2797 116.667 83.2863C117 83.2928 117.324 83.1757 117.576 82.9574C117.828 82.7392 117.991 82.4353 118.032 82.1044Z" fill="white"/>
<path d="M127.048 78.0523C126.822 78.0523 126.642 78.0523 126.589 78.1729C126.536 78.2934 126.634 78.5947 126.423 78.6399C126.173 78.6757 125.92 78.6757 125.67 78.6399C125.595 78.6399 125.579 78.4892 125.527 78.4516C125.438 78.2307 125.278 78.046 125.071 77.9271C124.865 77.8083 124.625 77.7622 124.389 77.7962C124.185 77.7977 123.984 77.8502 123.806 77.9488C123.627 78.0475 123.475 78.1892 123.365 78.3612C123.365 78.4064 123.365 78.5495 123.229 78.5495C122.973 78.5495 122.476 78.6248 122.416 78.5495C122.371 78.385 122.348 78.2153 122.348 78.0448C122.28 77.3744 121.783 77.51 120.277 77.5251C119.184 77.5251 118.582 77.397 118.469 78.1126C118.311 79.0617 118.326 79.8225 119.019 79.8827C122.084 80.1689 122.333 80.3497 122.431 79.4157C122.431 79.2952 122.348 79.024 122.514 79.0541C122.853 79.0541 122.928 79.0014 123.146 79.1144C123.199 79.1144 123.184 79.2952 123.207 79.4157C123.276 79.6753 123.429 79.9047 123.642 80.0683C123.856 80.232 124.117 80.3207 124.386 80.3207C124.654 80.3207 124.915 80.232 125.129 80.0683C125.342 79.9047 125.495 79.6753 125.564 79.4157C125.64 79.2274 125.466 79.0993 126.054 79.0993C126.529 79.0993 126.446 79.1671 126.468 79.3253C126.491 79.4835 126.468 79.9354 126.513 80.1991C126.604 80.6435 126.755 80.4627 128.773 80.4326C129.086 79.6479 129.353 78.8456 129.572 78.0297C129.112 78.0825 128.434 78.0297 127.048 78.0523Z" fill="white"/>
<path d="M123.125 87.9267C123.667 87.1735 122.145 85.0117 120.744 86.4202C119.343 87.8288 121.927 89.6366 123.125 87.9267Z" fill="white"/>
<path d="M100.353 66.7757C99.9384 66.7004 98.8462 67.0017 98.7332 67.9282C98.6977 68.1951 98.7525 68.4662 98.8891 68.6983C99.0256 68.9304 99.2359 69.1101 99.4864 69.2087C99.791 69.379 100.145 69.4384 100.489 69.3765C100.832 69.3147 101.143 69.1356 101.37 68.8697C101.484 68.6707 101.547 68.4467 101.555 68.2174C101.563 67.9881 101.515 67.7603 101.415 67.5539C101.314 67.3476 101.165 67.1688 100.98 67.0331C100.795 66.8975 100.58 66.8091 100.353 66.7757Z" fill="white"/>
<path d="M90.7041 84.3047C90.7041 84.3047 91.0205 84.4629 91.5477 84.7039L90.7041 84.3047Z" fill="white"/>
<path d="M137.902 83.1207C137.904 83.3377 137.862 83.5528 137.78 83.7534C137.697 83.954 137.575 84.1358 137.42 84.2882C137.006 84.695 137.149 84.0095 135.59 84.0773C135.288 84.0773 134.904 83.5802 134.889 82.9926C134.898 82.7948 134.945 82.6006 135.028 82.421C135.112 82.2415 135.23 82.0801 135.376 81.9462C135.522 81.8122 135.692 81.7083 135.878 81.6404C136.064 81.5724 136.262 81.5418 136.46 81.5502C136.657 81.5586 136.852 81.6059 137.031 81.6894C137.211 81.7728 137.372 81.8909 137.506 82.0367C137.64 82.1825 137.744 82.3533 137.812 82.5393C137.88 82.7253 137.911 82.9229 137.902 83.1207Z" fill="#8DCCF3"/>
<path d="M130.061 84.8457C130.402 84.8607 130.725 85.0041 130.965 85.2471C131.206 85.4901 131.345 85.8148 131.356 86.1563C131.356 86.8192 130.603 87.6628 130.083 87.6628C129.703 87.6649 129.336 87.5296 129.048 87.2818C128.76 87.034 128.571 86.6905 128.517 86.3145C128.54 85.9194 128.712 85.5479 128.999 85.2751C129.285 85.0024 129.665 84.8489 130.061 84.8457Z" fill="#8DCCF3"/>
<path d="M85.4387 81.1473C87.8039 82.1943 87.7512 82.1189 87.6985 82.473C87.6457 82.827 87.3369 83.1735 87.013 83.0228C85.8955 82.5944 84.8148 82.0754 83.7816 81.4712C83.6936 81.3952 83.6366 81.2896 83.6213 81.1743C83.606 81.0591 83.6336 80.9422 83.6988 80.846C83.985 80.3865 84.5499 80.7556 85.4387 81.1473Z" fill="#8DCCF3"/>
<path d="M87.2022 78.5784C87.6918 78.7893 88.9799 79.2563 88.9272 79.6028C88.8744 79.9493 88.5355 80.3184 88.1739 80.1753C85.0254 78.7818 84.6864 78.7742 84.7919 78.3449C84.8973 77.9155 84.9425 77.7046 85.1308 77.7272C85.3191 77.7498 86.4264 78.2394 87.2022 78.5784Z" fill="#8DCCF3"/>
<path d="M90.2151 76.5906C90.3506 76.6734 90.1096 77.6602 89.7405 77.4944C88.5737 77.0559 87.443 76.5271 86.3585 75.9126C86.2826 75.8416 86.2256 75.7527 86.1927 75.654C86.1598 75.5554 86.1521 75.4501 86.1702 75.3477C86.1833 75.2406 86.2364 75.1423 86.3187 75.0725C86.4011 75.0027 86.5067 74.9665 86.6146 74.9711C86.8707 75.0163 90.0418 76.5002 90.2151 76.5906Z" fill="#8DCCF3"/>
<path d="M87.5106 69.8184C87.8735 69.8858 88.199 70.0842 88.4253 70.3758C88.6517 70.6673 88.7631 71.0319 88.7384 71.4002C88.7271 71.7402 88.587 72.0632 88.3464 72.3038C88.1059 72.5443 87.7828 72.6845 87.4428 72.6957C87.1152 72.6517 86.808 72.5116 86.5599 72.2931C86.3119 72.0746 86.1342 71.7874 86.0493 71.468C86.0486 71.0394 86.1744 70.6201 86.4109 70.2628C86.7151 69.992 87.1037 69.835 87.5106 69.8184Z" fill="#8DCCF3"/>
<path d="M91.4119 68.4403C91.4179 68.1187 91.5514 67.8126 91.7831 67.5894C91.8978 67.4789 92.0332 67.3921 92.1815 67.3339C92.3297 67.2757 92.488 67.2472 92.6473 67.2502C92.8065 67.2532 92.9636 67.2875 93.1096 67.3512C93.2556 67.4149 93.3876 67.5067 93.4982 67.6214C93.6087 67.7361 93.6955 67.8715 93.7537 68.0197C93.8119 68.168 93.8403 68.3263 93.8374 68.4855C93.8258 68.8326 93.6806 69.1619 93.4323 69.4046C93.1839 69.6474 92.8514 69.7849 92.5041 69.7886C92.3416 69.7778 92.183 69.7336 92.0384 69.6586C91.8937 69.5837 91.7661 69.4796 91.6636 69.353C91.561 69.2264 91.4857 69.08 91.4424 68.923C91.3991 68.7659 91.3888 68.6016 91.4119 68.4403Z" fill="#8DCCF3"/>
<path d="M93.1749 62.4217C93.2437 62.7285 93.2067 63.0495 93.0699 63.3325C92.9332 63.6156 92.7047 63.8441 92.4217 63.9809C91.5705 64.4404 92.1279 62.4745 90.5537 62.4745C90.3654 62.4745 90.8776 61.3747 92.0601 61.3597C92.6477 61.3446 93.062 61.9472 93.1749 62.4217Z" fill="#8DCCF3"/>
<path d="M124.359 75.2273C129.88 77.6903 128.991 77.1179 129.368 77.9163C128.562 78.195 129.247 78.0218 127.048 78.0519C126.822 78.0519 126.641 78.0519 126.588 78.1724C126.536 78.2929 126.634 78.5942 126.423 78.6394C126.173 78.6753 125.919 78.6753 125.669 78.6394C125.594 78.6394 125.579 78.4888 125.526 78.4511C125.424 78.2571 125.273 78.0932 125.088 77.976C124.903 77.8587 124.69 77.7922 124.471 77.783C124.252 77.7739 124.035 77.8224 123.841 77.9238C123.646 78.0252 123.482 78.1759 123.364 78.3607C123.364 78.4135 123.365 78.549 123.229 78.549C122.965 78.549 122.476 78.6244 122.415 78.549C122.371 78.3845 122.348 78.2148 122.348 78.0444C122.28 77.374 121.783 77.5096 120.276 77.5246C119.184 77.5246 118.581 77.3966 118.468 78.1122C118.31 79.0612 118.325 79.822 119.018 79.8823C122.084 80.1685 122.333 80.3493 122.43 79.4153C122.43 79.2947 122.348 79.0236 122.513 79.0537C122.852 79.0537 122.935 79.0085 123.146 79.114C123.199 79.114 123.184 79.2947 123.206 79.4153C123.276 79.6749 123.429 79.9043 123.642 80.0679C123.855 80.2316 124.116 80.3203 124.385 80.3203C124.654 80.3203 124.915 80.2316 125.128 80.0679C125.341 79.9043 125.495 79.6749 125.564 79.4153C125.617 79.2872 125.564 79.1742 125.7 79.129C125.928 79.0838 126.164 79.0838 126.393 79.129C126.475 79.129 126.453 79.242 126.468 79.3249C126.468 79.5433 126.468 79.935 126.513 80.1986C126.558 80.4623 126.596 80.4924 126.897 80.4924C129.421 80.4924 128.404 79.0914 123.252 91.1206C121.037 96.2954 120.555 98.4798 119.613 98.0429C109.708 93.4406 122.702 99.2632 90.6889 84.2812C89.1824 83.528 89.7248 83.7087 92.331 77.8184C92.6323 77.1555 94.779 71.4912 98.2063 64.6743C99.065 63.0172 97.1065 63.0925 124.359 75.2273ZM123.123 87.9269C123.666 87.1736 122.144 85.0118 120.743 86.4204C119.342 87.829 121.926 89.6367 123.123 87.9269ZM118.032 82.1043C118.016 81.7809 117.892 81.4722 117.678 81.2286C117.465 80.9851 117.175 80.8212 116.856 80.7636C116.494 80.7674 116.145 80.8985 115.869 81.134C115.594 81.3695 115.41 81.6943 115.35 82.0516C115.378 82.3838 115.528 82.6938 115.771 82.9218C116.015 83.1498 116.334 83.2796 116.667 83.2862C117 83.2927 117.324 83.1756 117.576 82.9573C117.828 82.7391 117.99 82.4352 118.032 82.1043ZM113.354 73.9543C114.921 73.9543 115.184 71.3857 113.482 71.3933C113.125 71.3843 112.778 71.5118 112.513 71.7497C112.247 71.9877 112.081 72.3182 112.051 72.6738C111.983 73.2688 112.721 73.9618 113.354 73.9618V73.9543ZM108.081 87.5804C109.482 87.1812 109.505 87.4448 109.588 86.4129C108.94 81.8407 108.737 81.4566 108.164 81.8934C104.262 84.9064 104.24 84.7482 104.496 85.2529C105.091 86.4505 105.016 86.7594 105.603 86.3601C107.177 85.3734 107.11 85.1399 107.192 85.7877C107.464 87.4147 107.486 87.7536 108.081 87.5879V87.5804ZM107.426 71.461C107.414 71.1752 107.3 70.9032 107.103 70.6955C106.906 70.4877 106.641 70.3583 106.356 70.3312C106.056 70.3897 105.78 70.5386 105.566 70.758C105.352 70.9774 105.21 71.2568 105.159 71.559C105.145 71.8459 105.239 72.1275 105.424 72.348C105.608 72.5685 105.868 72.7116 106.153 72.7491C106.479 72.713 106.784 72.5663 107.015 72.3334C107.247 72.1004 107.392 71.7953 107.426 71.4686V71.461ZM101.4 68.8624C101.515 68.6607 101.578 68.4338 101.583 68.2019C101.589 67.97 101.538 67.7402 101.433 67.533C101.329 67.3259 101.175 67.1477 100.985 67.0143C100.796 66.8809 100.576 66.7964 100.345 66.7684C99.9312 66.693 98.839 66.9943 98.726 67.9208C98.6905 68.1877 98.7453 68.4588 98.8818 68.6909C99.0184 68.923 99.2287 69.1027 99.4792 69.2013C99.7875 69.3847 100.151 69.452 100.505 69.3913C100.858 69.3305 101.178 69.1456 101.408 68.8699L101.4 68.8624ZM99.6977 74.474C99.8709 74.0597 99.6148 73.8338 98.4322 73.2914C97.9652 73.073 97.8899 73.1784 96.3232 76.8542C96.0671 77.4493 97.0237 77.6075 97.8824 77.969C98.3042 77.6226 98.1987 78.0896 99.7052 74.4815L99.6977 74.474Z" fill="#FFF59E"/>
<path d="M121.956 103.195C121.956 103.474 121.648 104.272 121.422 104.167C117.655 102.502 111.358 99.3083 105.031 96.3255C93.5065 90.8946 81.4546 85.0269 81.4923 84.9742C81.5299 84.9214 81.7559 84.0251 82.2455 84.1531C84.5052 85.0871 91.7966 88.7705 98.8168 92.145C105.144 95.158 111.208 97.9374 113.189 98.9769C116.925 100.935 121.489 102.788 121.956 103.195Z" fill="#D8E9FF"/>
<path d="M141.095 83.0757C141.924 85.0793 140.387 88.2505 139.438 90.2089C135.122 99.1122 134.632 99.8504 131.469 100.754C130.911 100.912 131.363 100.332 132.011 98.6C132.235 97.479 132.755 96.4385 133.518 95.587C140.779 88.2429 137.284 85.9079 137.947 85.1773C140.493 82.3978 137.427 79.5204 135.152 80.8537C134.874 81.0015 134.63 81.2058 134.435 81.4536C134.241 81.7013 134.1 81.987 134.022 82.2923C133.916 82.628 133.891 82.9842 133.95 83.3314C134.009 83.6785 134.15 84.0066 134.361 84.2884C134.437 84.5069 134.301 84.6048 134.248 84.6952C133.043 86.7365 132.252 88.3183 130.851 89.4707C128.215 91.6476 129.699 91.5647 126.332 95.0296C120.63 100.867 123.251 102.901 121.616 102.118C80.5649 82.5936 82.2747 83.1661 82.2822 83.151C83.5251 80.703 82.2822 81.9986 87.0201 83.6181C88.2102 84.0173 88.7375 82.3827 88.2253 81.8856C87.8412 81.509 87.5173 81.3583 84.4139 80.0176C83.6607 79.7012 83.8415 80.2285 84.09 79.3396C84.2407 78.7973 83.9695 78.9404 87.103 80.3716C88.6848 81.1248 88.9258 80.9892 89.4305 80.1757C89.6715 79.7916 89.7318 79.4828 89.4832 79.1815C88.9325 78.6948 88.2932 78.3188 87.6001 78.0742C86.8634 77.7266 86.1091 77.4173 85.3404 77.1477C84.9035 77.0121 84.7227 77.0799 84.7227 77.0347C84.7227 76.2288 84.8131 72.8844 85.3931 72.1236C85.6404 72.5791 86.0011 72.963 86.4401 73.2384C88.2328 74.195 91.7128 71.6867 88.0069 68.9525C89.1958 68.5713 90.2223 67.8021 90.9219 66.7681C91.8559 65.6156 91.5245 64.9076 91.984 64.9151C92.3992 64.8905 92.799 64.749 93.1374 64.5071C93.4757 64.2651 93.7387 63.9324 93.8962 63.5474C94.0537 63.1624 94.0991 62.7408 94.0273 62.3311C93.9556 61.9213 93.7694 61.5403 93.4905 61.2317C92.5113 59.9738 89.8824 60.5915 89.6414 62.5574C89.6414 62.8135 89.7017 62.7382 86.9297 63.9359H86.8469C86.8599 63.9033 86.8777 63.8728 86.8996 63.8455C88.037 62.113 88.617 61.0359 89.1593 60.358C89.8418 59.4614 90.8418 58.8603 91.9539 58.6783C95.6447 58.0455 97.2265 59.8684 119.824 69.4345C127.281 72.5981 138.429 78.7371 138.444 78.7446C139.815 79.4526 140.206 80.9516 141.095 83.0757ZM130.128 88.6798C131.19 88.6798 132.312 87.4144 132.305 86.1414C132.318 85.8202 132.265 85.4997 132.15 85.1996C132.035 84.8994 131.86 84.6259 131.636 84.3956C131.411 84.1654 131.142 83.9833 130.845 83.8605C130.548 83.7377 130.229 83.6767 129.908 83.6813C129.586 83.686 129.269 83.756 128.976 83.8873C128.682 84.0186 128.419 84.2083 128.201 84.4449C127.983 84.6815 127.816 84.96 127.71 85.2633C127.603 85.5666 127.56 85.8885 127.582 86.2092C127.614 86.867 127.895 87.4879 128.368 87.9465C128.841 88.4052 129.47 88.6673 130.128 88.6798ZM130.211 77.9687C130.678 76.7108 130.369 77.0046 123.801 74.0218C121.978 73.1932 110.16 67.9958 108.676 67.3029C101.618 64.1392 98.6878 61.8419 97.7011 63.8681C93.7315 72.0483 90.3118 80.1381 89.0388 82.8949C88.1726 84.763 89.7092 84.7404 98.8309 89.0564C112.57 95.5268 117.361 97.9823 119.063 98.8486C120.042 99.3306 120.743 99.052 121.089 98.4795C121.842 97.2668 122.814 94.2387 125.609 88.145C129.556 79.5731 128.049 83.7461 130.211 77.9687ZM92.6996 70.5418C93.2346 70.5322 93.7453 70.3159 94.1244 69.9381C94.5035 69.5604 94.7217 69.0506 94.7333 68.5156C94.4772 65.352 90.4022 65.8792 90.5378 68.5156C90.5594 69.0697 90.7983 69.593 91.2029 69.9722C91.6075 70.3515 92.1452 70.5561 92.6996 70.5418ZM89.8523 78.0742C90.8315 77.9913 91.3588 76.5075 90.3871 76.0254C86.6887 74.1875 86.5155 74.1799 86.0936 74.4511C85.5136 74.8277 85.0843 76.0254 86.0936 76.5075C89.5887 78.0893 89.1066 77.8181 89.8523 78.0516V78.0742Z" fill="#D8E9FF"/>
<path d="M55.1662 71.6933C55.6407 72.5444 56.5296 73.1998 56.4768 74.3899C56.3186 77.8397 56.6275 77.9979 56.1303 77.7945C48.8691 74.7816 49.3512 75.3992 46.0896 74.533C43.8826 73.9455 43.2499 73.3353 38.964 72.4239C31.8082 70.9174 33.616 70.8572 29.9251 70.5785C29.4652 70.563 29.0104 70.4766 28.5768 70.3224C27.59 68.7481 29.4581 64.8463 29.8422 65.1627C30.5955 65.7954 32.3355 65.5242 33.6762 65.5619C35.7175 65.6222 37.224 65.8933 39.9357 66.2097C43.9655 66.6842 47.8522 67.2718 52.1457 69.652C54.5485 71.0003 54.8423 71.1133 55.1662 71.6933Z" fill="#84D492"/>
<path d="M84.2407 16.9487C84.4968 18.8017 84.5043 18.8243 84.3913 18.9373C82.7267 20.5718 81.9207 20.745 78.0942 22.6131C59.8206 31.554 40.0029 36.2844 39.9727 35.968C34.2029 36.6459 35.4533 37.113 27.1676 37.2335C24.2978 37.2787 23.5596 37.3013 22.7537 37.0452C22.5051 36.9698 22.4072 36.6158 22.3243 36.2467C22.2415 35.8776 22.1887 35.3127 22.4825 35.4935C26.6178 36.42 36.8317 34.9662 41.0348 34.2205C56.7474 30.507 77.7252 21.6866 82.7116 17.9957C83.8565 17.137 84.203 16.6625 84.2407 16.9487Z" fill="#FFCCCE"/>
<path d="M43.6874 9.22958C43.7251 10.2992 42.3165 10.4348 41.3072 10.3519C39.8459 10.2389 39.8836 8.40102 41.4202 8.24284C42.4446 8.13738 43.6874 8.28803 43.6874 9.22958Z" fill="#FFCCCE"/>
<path d="M43.2577 30.4613C43.463 31.1223 43.634 31.7936 43.7699 32.4724C43.1146 32.6381 42.4969 32.7963 41.9094 32.9244C41.5478 33.0072 41.5102 31.6288 40.6138 28.5857C39.3484 24.2772 37.7063 23.072 36.2827 22.6652C34.8468 22.4521 33.3874 22.4521 31.9515 22.6652C29.6918 23.0042 28.336 23.4561 27.2664 25.1283C26.4378 26.4314 25.0971 27.7421 26.2721 32.962C26.6487 34.6342 26.7918 34.8225 26.4981 34.8527C25.9859 34.9054 25.549 34.8527 25.1724 34.8527C24.5317 32.1381 24.409 29.327 24.8108 26.567C25.3417 24.7889 26.4732 23.2501 28.0121 22.2133C31.0251 20.7068 32.3734 20.9704 33.6689 20.752C35.1121 20.4724 36.6047 20.6028 37.9775 21.1286C41.9094 22.8611 42.4442 28.4727 43.2577 30.4613Z" fill="#FFCCCE"/>
<path d="M142.769 90.9779C143.07 92.0249 142.618 92.8008 141.88 94.7441C141.375 96.0924 141.985 96.5971 142.407 99.5197C142.475 99.9641 141.85 101.433 141.978 102.834C142.015 104.037 141.81 105.236 141.375 106.359C140.989 107.389 140.461 108.359 139.808 109.244C139.153 110.276 138.52 112.182 136.2 113.937C130.619 118.162 133.941 118.456 130.928 116.543C130.252 116.204 129.497 116.055 128.743 116.112C127.99 116.169 127.266 116.43 126.649 116.867C125.045 117.936 126.544 117.258 120.797 116.573C119.9 116.46 119.772 117.326 121.474 109.236C121.663 108.318 121.798 107.391 122.017 106.48C122.567 104.16 123.177 103.768 123.245 102.615C123.373 100.22 125.504 97.2298 127.274 95.7309C130.069 93.3431 129.248 92.168 131.319 90.6465C133.391 89.1249 133.775 87.4603 135.085 85.5546C135.673 84.711 137.127 85.1855 137.149 87.4904C137.097 88.5272 136.787 89.5345 136.245 90.4205C134.182 94.375 131.914 94.2922 130.973 98.1262C130.815 98.7589 129.971 99.6327 130.385 100.71C130.453 100.876 130.212 101.945 131.545 101.787C132.655 101.632 133.711 101.208 134.619 100.551C135.528 99.8949 136.262 99.0261 136.758 98.0207C140.125 91.2943 139.402 92.9439 140.012 91.6634C142.226 86.9556 141.458 86.3455 142.769 90.9779Z" fill="#FFC6A6"/>
<path d="M89.921 63.7105C90.5763 63.3263 90.727 64.2302 90.6743 64.4637C90.4181 66.6707 87.7893 67.7252 86.667 68.373C83.5863 70.1507 83.6992 76.5231 83.654 76.7114C83.2925 78.4438 82.8481 79.6415 80.7239 83.8446C79.4811 86.3152 77.3494 85.3963 77.5377 86.4056C77.598 86.737 77.8089 86.7822 78.0725 86.7897C80.4302 86.5788 80.2645 85.4414 80.9725 85.7804C82.0843 86.2104 83.1663 86.7137 84.2115 87.2869C80.98 88.8762 80.7014 88.7934 78.645 92.7404C75.8279 98.1637 76.1819 98.1863 75.8806 97.7494C74.9165 96.3408 70.8716 90.8121 69.3877 88.364C68.7248 87.2794 69.1617 87.9196 71.6926 85.11C73.7339 82.8503 73.9523 82.323 75.1349 79.3477C75.9465 77.5184 76.5577 75.6066 76.9577 73.6457C77.3268 72.433 78.0575 70.6327 78.3663 69.3974C78.6224 68.3805 78.9388 67.8909 83.3226 62.8442C85.2208 60.6824 85.7179 60.8858 86.8252 60.5167C88.4748 59.9668 87.5784 60.577 86.072 63.364C84.927 65.5408 83.8122 64.313 82.4865 66.2263C81.9367 67.0247 81.6881 68.4107 80.0912 70.7005C79.5188 71.514 78.4642 72.1166 78.5847 72.6288C78.8107 73.9319 81.1307 71.4613 82.238 69.2317C83.6691 66.3393 82.8631 66.7084 86.6218 65.2923C87.7486 64.8234 88.8499 64.2954 89.921 63.7105Z" fill="#FFC6A6"/>
<path d="M82.6903 15.2683C82.969 15.2683 83.5264 15.66 83.1196 16.0215C81.4399 17.528 82.3664 17.1514 79.6472 18.6127C75.655 20.7218 76.0091 20.4581 73.4254 21.6256C70.1564 23.1321 70.4125 23.23 70.2091 22.6049C69.2977 19.2454 69.1621 19.8555 68.5444 17.7992C68.8759 17.4979 77.7114 14.6958 82.6903 15.2683Z" fill="#FFCCCE"/>
<path d="M74.5694 43.8767C74.6599 44.7337 74.4712 45.5969 74.0315 46.338C73.5918 47.0791 72.9244 47.6583 72.1289 47.9894C71.7598 48.1401 71.564 48.6899 71.579 49.7746C71.5848 53.2848 71.165 56.7828 70.3287 60.1919C68.2949 69.3589 64.4082 65.9015 55.9493 63.2049C54.2846 62.6852 53.1924 69.0576 52.6426 68.7337C50.4431 67.3929 46.5036 66.1802 44.0029 65.5927C42.7525 65.2989 34.7983 64.8394 34.964 64.2896C35.7172 61.5252 35.7172 61.608 36.0713 60.4631C36.2144 59.9358 36.4102 60.5836 38.2783 60.4631C39.5889 60.3576 38.9863 59.4086 39.6416 59.5969C41.5247 60.1241 41.2912 59.9132 43.2421 59.5366C43.6338 59.4613 44.7486 60.2221 45.2081 59.0847C45.6676 57.9473 47.7766 59.0244 48.7784 57.081C49.9535 54.8213 49.9234 54.6782 49.8706 53.7593C49.8748 53.6933 49.8635 53.6273 49.8375 53.5666C49.8115 53.5059 49.7717 53.4521 49.7211 53.4096C49.6705 53.3671 49.6107 53.337 49.5464 53.3219C49.4821 53.3067 49.4151 53.3069 49.3509 53.3224C48.9969 53.3224 48.9743 53.5559 48.9215 53.8421C48.2135 57.3146 46.8275 57.179 46.1496 57.3974C45.9613 57.4577 46.2024 56.6442 46.3003 55.7403C46.3982 54.8364 45.3587 54.7083 45.3663 55.2808C45.2956 56.2326 45.0397 57.1614 44.613 58.0151C44.3569 58.6327 44.2364 58.7683 43.7016 58.3013C41.0276 55.8683 42.0219 55.1452 41.0653 55.2883C40.4024 55.3938 41.1255 56.8475 41.5323 57.4351C42.2855 58.5047 42.6094 58.5197 42.2252 58.6478C40.5079 59.2127 39.5588 58.2335 37.9242 57.4652C36.2897 56.6969 36.365 55.3561 35.7248 55.5369C35.0845 55.7177 35.5365 57.5029 37.5175 58.4293C37.6681 58.5047 38.459 58.9265 38.3912 59.047C38.3235 59.1675 38.2255 59.2956 38.1351 59.2956C37.7037 59.3183 37.2711 59.288 36.8471 59.2052C35.0845 58.7608 34.6853 59.3408 34.5196 58.9415C33.8944 57.3899 32.0264 59.0771 29.857 56.0642C29.3674 55.3787 29.857 54.3694 29.3147 53.5031C28.7724 52.6369 27.4015 51.0777 26.8516 50.1588C25.1568 47.3266 27.2508 45.9557 25.8649 44.1328C24.4789 42.31 24.2605 41.9108 24.2379 39.6134C24.2379 36.7887 23.6579 39.2744 34.4819 37.9186C48.9743 36.0958 60.1674 30.5745 60.5064 31.6516C60.8604 33.3561 60.6434 35.1296 59.8887 36.6983C59.0451 38.3856 61.1241 38.9581 59.9339 40.8261C59.5422 41.4362 58.6836 41.5793 58.9698 42.5887C59.1958 43.3419 57.8475 43.3419 58.3069 44.0952C58.7664 44.8484 60.1599 43.9747 60.0017 42.7469C59.8737 41.7752 61.5534 41.858 61.237 39.2518C61.1617 38.6266 60.4838 37.6851 60.77 37.2106C61.6188 35.4044 61.8132 33.3594 61.3199 31.4257C61.1692 30.9511 61.0939 31.1922 65.8393 29.2488C69.3645 27.7875 68.9804 27.3054 69.3494 30.3787C69.4172 30.9436 69.5076 31.5612 69.244 31.5311C66.7884 31.275 64.9806 33.7005 64.9731 35.689C64.9731 36.3594 65.5983 36.3519 65.7264 35.9978C65.99 35.0864 66.0879 33.9189 67.7375 32.8644C68.249 32.6054 68.8335 32.5284 69.3946 32.6459C69.8767 32.6459 68.9126 37.7905 69.1385 39.9523C69.167 40.5086 69.3546 41.0449 69.6791 41.4976C70.0036 41.9503 70.4513 42.3002 70.9689 42.5058C72.5733 43.3871 74.3736 42.2271 74.5694 43.8767ZM70.0499 54.4899C70.2081 54.0831 70.1328 53.7367 69.7637 53.5785C66.3591 51.9741 67.7902 52.6219 64.6116 50.6107C63.8583 50.1512 63.4892 50.4751 63.6323 51.153C64.2952 54.2187 64.1445 58.6402 65.5832 60.0111C66.1632 60.5685 67.0897 60.1693 67.6848 59.3106C68.6439 57.7933 69.4369 56.177 70.0499 54.4899ZM67.617 42.1819C67.7676 41.6773 67.7752 41.0069 67.2856 40.811C66.5323 40.5323 66.4721 41.3609 66.3139 41.8731C66.3967 42.9352 67.4136 42.8599 67.617 42.1819ZM54.9851 54.4296C56.2656 54.0304 57.6893 52.3733 57.4407 51.0626C57.4217 50.9607 57.3676 50.8686 57.2878 50.8023C57.208 50.736 57.1076 50.6997 57.0038 50.6997C56.9001 50.6997 56.7996 50.736 56.7198 50.8023C56.6401 50.8686 56.586 50.9607 56.5669 51.0626C56.5067 52.0117 55.1734 53.9551 53.1322 53.4052C49.7576 52.5089 47.9725 49.0515 48.2813 47.0403C48.2813 45.1798 48.1382 44.0274 49.0345 42.8749C51.0984 40.1181 54.3072 40.442 55.4672 41.956C56.2205 42.9653 56.2205 43.7336 56.8155 43.5604C57.516 43.3419 56.356 41.2329 55.2412 40.5474C52.635 38.9957 49.6823 40.0879 48.1156 42.4456C47.3623 43.6357 47.4527 44.6375 47.3623 46.3172C46.8577 51.7255 51.6257 55.4766 54.9851 54.4296ZM54.0436 48.4037C54.3524 47.7785 55.8212 47.078 55.2789 45.8427C52.8685 40.4118 48.9592 43.6734 49.8932 46.5206C49.946 46.6713 50.2623 46.7842 50.3602 46.7692C50.6389 46.724 50.6917 46.0159 50.541 46.0159C50.6072 45.6308 50.7003 45.2507 50.8197 44.8785C51.2415 43.7939 52.9363 43.2666 54.134 45.8804C54.3675 46.4152 54.3976 46.4829 53.9607 46.8746C51.7462 48.8858 53.4787 51.025 54.714 50.8216C54.8329 50.8149 54.9455 50.7657 55.0312 50.683C55.117 50.6003 55.1701 50.4896 55.1811 50.371C55.192 50.2523 55.16 50.1337 55.0909 50.0367C55.0217 49.9397 54.9201 49.8707 54.8044 49.8424C54.6428 49.8287 54.4872 49.7749 54.3518 49.6857C54.2164 49.5965 54.1055 49.4749 54.0291 49.3319C53.9528 49.1889 53.9134 49.029 53.9146 48.8669C53.9158 48.7048 53.9576 48.5456 54.0361 48.4037H54.0436ZM42.3006 53.3676C42.3006 53.5785 43.1743 54.038 43.1291 53.1943C43.0613 52.0419 43.679 48.5544 42.6621 48.8105C42.1273 48.946 42.2704 49.5637 42.2629 49.8575C42.1963 51.027 42.2089 52.1997 42.3006 53.3676ZM38.8809 53.0211C39.265 54.2865 40.4325 54.6782 40.4401 53.6915C39.265 51.3564 39.4533 51.025 38.6323 50.2416C38.4214 50.0382 37.9167 49.9177 37.8338 50.4601C37.7284 51.1154 38.1427 50.573 38.8809 53.0211ZM37.1409 54.7008C37.2765 54.6481 37.3442 54.4296 37.4271 54.3091C37.3668 54.1208 37.3593 53.9702 37.284 53.8948C36.9851 53.5871 36.6655 53.3002 36.3274 53.0361C34.3765 51.6125 35.6269 51.0777 34.2108 49.6164C33.7513 49.1494 33.1864 49.5034 33.5404 50.1136C34.9263 52.4938 33.1713 52.0268 36.5533 54.633C36.6396 54.6885 36.7374 54.7234 36.8392 54.7352C36.9411 54.747 37.0443 54.7352 37.1409 54.7008ZM32.6214 55.68C32.6818 55.7052 32.7465 55.7183 32.8119 55.7185C32.8773 55.7188 32.9421 55.7061 33.0026 55.6813C33.0631 55.6564 33.1181 55.6199 33.1645 55.5738C33.2109 55.5277 33.2478 55.473 33.273 55.4126C33.2982 55.3523 33.3113 55.2876 33.3115 55.2222C33.3117 55.1568 33.299 55.092 33.2742 55.0315C33.2494 54.971 33.2129 54.9159 33.1668 54.8695C33.1207 54.8231 33.0659 54.7863 33.0056 54.7611C31.951 54.3392 32.3051 53.4128 31.8004 52.2151C31.002 50.3169 29.1791 50.7086 29.3825 49.4356C29.3825 49.4356 29.4879 48.8858 29.0059 48.8557C28.3882 48.8105 28.0191 50.3169 29.2394 51.1154C29.857 51.5372 30.8739 52.0569 31.0697 53.0813C31.2656 54.1057 31.1677 55.1829 32.6214 55.68Z" fill="#FFC6A6"/>
<path d="M67.972 19.4575C69.5162 23.6154 69.4785 23.3969 69.2299 23.5024C63.9573 25.6491 52.6586 30.0405 44.7195 32.2174C44.5312 31.0875 43.8608 28.9182 43.5595 27.6979C42.8063 24.5946 41.9024 22.2972 39.0401 20.4442C36.1777 18.5913 28.4947 20.2484 26.8376 21.9507C23.576 25.3554 23.9752 26.3873 23.7794 29.9878C23.8043 31.6126 23.9808 33.2316 24.3067 34.8236C22.3558 35.0194 22.8755 34.2361 22.5215 27.0728C22.5312 25.8732 22.753 24.6849 23.1768 23.5626C24.2389 20.0676 27.5682 17.4011 30.4531 15.1565C33.9632 12.4373 37.8273 11.3903 38.6559 10.9986C39.9138 10.3809 39.7406 11.5861 41.9476 11.4053C43.1603 11.2999 44.3278 11.0212 44.6592 9.89886C44.8249 9.34147 52.3649 7.83498 57.8937 9.89886C61.5243 11.2396 59.9726 10.0947 63.5957 12.6934C64.4862 13.1811 65.2083 13.9269 65.6671 14.8326C67.1811 17.6874 67.038 16.9793 67.972 19.4575Z" fill="#FF9C9F"/>
<path d="M40.8171 32.9011C40.8698 33.097 40.3425 33.1949 39.6194 33.4058C36.4633 34.3172 27.6806 35.1232 27.5676 34.6939C26.5507 30.5661 26.6712 28.6227 26.7616 27.9749C26.993 27.0285 27.4505 26.1523 28.0948 25.4215C29.0364 24.1334 31.3639 23.6815 32.8629 23.5911C34.648 23.4932 36.4257 23.0864 37.9623 25.0976C39.642 27.2895 40.0638 30.1895 40.8171 32.9011ZM34.0379 32.3814C34.6706 32.3061 35.3109 32.3437 35.1828 31.711C35.0548 31.0783 33.9701 31.5528 33.3675 31.2817C31.4016 30.4154 32.2151 29.376 31.3639 29.376C30.9873 29.376 30.9722 29.7375 30.7914 29.9409C30.2717 30.4983 29.4205 29.8279 29.3753 29.1877C29.3151 28.4344 29.7294 27.3498 28.9912 27.636C28.6598 27.764 28.592 28.3892 28.5694 28.7433C28.5169 29.0767 28.5489 29.4179 28.6624 29.7358C28.7759 30.0536 28.9673 30.338 29.2191 30.5628C29.4708 30.7876 29.7749 30.9456 30.1036 31.0225C30.4322 31.0994 30.7749 31.0927 31.1003 31.003C31.5522 30.5736 32.1247 32.4266 34.053 32.3889L34.0379 32.3814Z" fill="#FFD152"/>
<path d="M129.399 124.181C129.399 124.181 126.257 142.387 126.19 142.658C126.122 142.929 122.845 143.953 120.872 143.208C118.898 142.462 115.207 143.004 113.166 142.861C111.125 142.718 108.187 143.072 108.458 141.498C108.73 139.924 117.188 127.45 118.484 119.405L125.504 120.219C125.504 120.219 124.962 123.533 129.399 124.181Z" fill="#FFC6A6"/>
<path d="M129.052 117.085C129.748 117.042 130.44 117.21 131.04 117.566C131.639 117.922 132.118 118.449 132.414 119.08C132.71 119.711 132.809 120.416 132.7 121.105C132.59 121.793 132.277 122.433 131.8 122.941C131.322 123.449 130.704 123.802 130.023 123.954C129.343 124.106 128.633 124.051 127.985 123.795C127.337 123.539 126.78 123.094 126.388 122.518C125.995 121.942 125.784 121.261 125.783 120.564C125.757 119.67 126.086 118.801 126.699 118.149C127.312 117.497 128.158 117.114 129.052 117.085Z" fill="white"/>
<path d="M93.5816 139.637L81.349 115.661C81.349 115.661 75.3758 119.638 74.713 120.015C74.0501 120.391 64.853 126.651 61.5312 127.886L69.8772 142.582C78.916 143.132 81.929 141.663 87.6988 142.484C91.0206 142.959 94.5307 141.445 93.5816 139.637Z" fill="#FFC6A6"/>
<path d="M60.6132 30.5225C60.794 30.5225 61.5096 33.6333 60.9748 34.944C60.44 36.2546 59.7771 36.7367 60.2215 37.6331C60.6659 38.5294 61.1781 40.3297 60.2215 41.226C59.2649 42.1224 59.4683 42.3559 59.4683 42.8379C59.4683 43.32 58.2706 44.3444 57.4948 44.3444C56.719 44.3444 56.8319 43.5083 55.9883 42.1374C55.1447 40.7665 52.2221 39.7421 50.6704 40.8795C49.1188 42.0169 47.7403 42.3182 47.9211 45.301C48.1019 48.2839 48.0341 49.9636 48.6744 50.8072C49.3146 51.6509 49.9247 53.1347 49.4276 54.3324C48.9305 55.5301 47.5144 57.6768 45.3601 58.2191C45.3601 58.2191 44.9458 59.0552 43.2058 58.8744C43.2058 58.8744 40.6975 59.4092 39.5601 59.1155C39.5601 59.1155 38.37 60.0721 36.035 59.6503C33.6999 59.2285 33.6397 58.4526 32.8036 58.5129C31.9675 58.5731 28.9771 56.6599 28.8641 55.7033C28.7511 54.7467 28.8641 53.5566 27.787 52.4192C26.7099 51.2818 25.339 48.9618 25.4595 47.3197C25.58 45.6777 25.7005 44.6307 25.0452 43.7946C24.3899 42.9585 23.6668 40.7816 23.9078 37.8138C33.0069 38.0172 42.7388 36.9099 60.6132 30.5225Z" fill="#FFD152"/>
<path d="M83.2623 112.559C82.14 107.888 74.6226 97.3205 70.9694 91.528C64.6347 81.5024 55.6862 76.4632 44.7566 74.4596C42.8208 74.1056 33.3224 71.4466 31.9515 71.1303C29.5612 70.8212 27.1409 70.8212 24.7506 71.1303C22.2237 71.7043 19.8369 72.7773 17.7304 74.2864C15.8021 75.7928 12.5104 78.6928 12.2016 79.5063C11.8927 80.3198 7.53148 88.274 7.18499 89.1779C6.8385 90.0818 4.70683 96.3337 4.4206 96.507C2.80866 97.5088 4.72189 106.668 4.4206 109.719C4.1193 112.769 5.03072 117.131 4.72189 126.478C4.41306 135.826 5.23409 137.777 5.64084 141.114C6.04759 144.451 13.2561 141.114 15.5987 141.724C17.9413 142.334 67.2484 142.605 69.8847 142.583L61.5388 127.887C61.5388 127.887 74.5247 119.775 79.1948 117.342C83.8649 114.909 83.2623 112.559 83.2623 112.559Z" fill="#D3FFCF"/>
<path d="M64.0249 50.7695C64.1078 50.7695 69.9378 54.1214 69.9378 54.1214C69.9378 54.1214 68.0849 60.1474 65.9155 59.7783C64.635 59.5071 64.0249 50.7695 64.0249 50.7695Z" fill="white"/>
<path d="M146.03 58.4077C146.392 58.4077 146.851 58.3399 146.882 58.7015C146.829 59.2589 145.375 59.0028 142.942 60.6298C141.223 61.7354 139.835 63.2868 138.928 65.1186C138.021 66.9505 137.627 68.9942 137.79 71.032C138.159 74.9865 140.148 76.139 139.786 76.5005C138.392 77.6681 133.346 66.7084 142.136 60.3209C142.889 59.8012 143.643 59.4246 144.14 59.0706C141.323 58.3943 138.81 56.8052 136.991 54.5511C134.031 50.9626 132.32 46.507 132.118 41.859C131.839 36.7294 133.255 34.1458 133.753 32.5866C132.668 33.0913 129.045 36.6692 122.258 38.3188C114.824 40.1265 107.374 38.3188 104.723 30.4399C104.684 30.4968 104.651 30.5574 104.625 30.6207C102.96 36.5562 95.2996 42.6725 88.8067 43.6818C87.9028 43.825 87.0591 43.8174 85.9669 43.9153C87.6068 45.8162 88.7506 48.0934 89.2963 50.5439C89.575 51.7265 90.0495 56.7581 89.0402 56.615C88.656 56.5623 88.7087 56.2685 88.7464 56.035C89.4243 51.9524 88.3095 46.9961 84.6337 43.9379C84.4594 43.8639 84.3131 43.7365 84.2156 43.5741C84.1182 43.4118 84.0747 43.2227 84.0914 43.0341C84.0914 42.6951 85.2664 42.9135 86.1779 42.9889C93.7103 43.6517 104.256 35.0497 104.12 28.037C104.12 27.7809 104.173 27.5324 104.489 27.4646C104.964 27.3667 104.986 27.909 105.122 28.6321C105.274 30.0451 105.717 31.4114 106.422 32.6453C107.127 33.8793 108.08 34.9543 109.219 35.8029C112.338 38.1455 116.549 38.492 120.398 37.8593C128.495 36.5336 132.947 32.1121 135.154 30.0105C136.057 29.1443 136.449 28.6622 136.758 28.9635C137.511 29.7168 132.412 32.3079 132.819 41.8665C133.27 52.2387 140.389 58.5056 146.03 58.4077Z" fill="#000001"/>
<path d="M143.49 89.5235C144.04 91.8586 144.07 92.0394 143.588 93.4404C142.993 95.1804 142.601 95.5043 142.88 96.3479C144.002 99.7299 143.362 100.204 143.129 102.073C142.94 103.534 144.055 105.138 139.438 112.226C137.675 114.93 135.988 115.081 133.841 117.778C132.214 119.811 134.429 121.702 130.723 124.421C129.759 125.129 130.083 122.508 128.041 134.055C126.407 143.252 126.678 143.237 126.068 143.252C125.458 143.267 125.405 142.913 125.465 142.499C126.038 138.439 127.725 129.016 128.478 125.235C128.584 124.692 128.365 125.235 126.218 124.097C125.489 123.47 124.964 122.638 124.712 121.71C124.622 121.355 123.876 121.258 119.146 120.437C118.438 120.308 116.78 126.606 111.169 137.761C110.467 139.172 109.683 140.541 108.819 141.859C108.359 142.16 107.787 141.859 108.065 141.241C113.376 130.605 109.964 139.185 117.157 121.702C117.323 121.295 117.865 120.662 117.654 119.857C117.443 119.051 118.189 117.597 118.407 116.919C118.558 116.422 119.161 116.64 119.161 116.294C120.878 104.43 121.533 105.229 120.961 104.995C117.375 103.338 93.8894 92.0469 85.5585 88.0396C85.1141 87.8287 85.2271 87.9342 82.9825 89.0113C82.033 89.4194 81.2665 90.1619 80.8282 91.0978C79.3857 93.463 78.1072 95.9243 77.0017 98.4645C76.8436 98.8035 76.4067 98.6453 76.8059 99.3307C84.2103 112.083 80.5721 106.471 83.811 112.241C84.278 113.077 83.909 113.552 82.6962 114.93C82.2292 115.465 81.7622 115.443 81.943 115.849C85.9502 123.254 82.8469 118.455 87.8333 127.306C89.4417 130.068 90.8854 132.923 92.1569 135.855C93.5354 138.703 94.7858 140.315 93.7764 140.525C92.7671 140.736 89.6712 132.24 85.89 126.161C83.6303 122.561 84.2103 122.696 82.5682 119.563C80.9261 116.429 81.0617 116.369 80.7227 116.655C77.4687 119.148 77.4386 118.403 74.6064 120.934C73.3937 122.018 72.648 122.515 65.8387 126.38C62.3437 128.361 62.1704 128.074 62.419 128.519C69.7179 141.188 70.3883 142.273 70.2828 142.672C70.1171 143.335 69.6049 143.35 69.3337 142.868C65.1382 135.403 66.3961 138.017 61.3795 129.008C61.0029 128.338 59.6697 130.319 58.1255 128.406C54.751 124.225 56.7546 125.498 52.1448 116.896C50.9697 114.493 51.0601 113.303 49.7118 109.221C47.0981 101.493 44.055 93.4554 47.2261 85.8703C47.4747 85.2903 48.356 85.5916 48.017 86.2921C44.168 94.2689 50.8568 108.347 51.9414 112.987C52.4837 115.337 53.6965 116.844 56.137 122.079C57.4928 124.986 56.4006 123.999 58.7808 127.027C60.0915 128.707 58.8411 128.918 71.36 121.913C74.0415 120.406 74.2825 119.284 77.2277 117.68C79.8867 116.241 82.184 114.222 82.6962 113.16C83.57 111.315 68.6106 87.3994 63.3304 83.2038C60.8975 81.268 57.6736 78.9028 55.105 79.4376C53.0035 79.867 52.785 80.0327 52.5967 79.6033C52.318 78.9932 53.0863 79.0234 54.7585 78.3906C52.2254 77.2573 49.5828 76.3865 46.8721 75.792C45.3656 75.4907 43.1059 74.5265 41.3057 74.0746C38.2324 73.3213 35.6338 72.7941 34.2026 72.44C33.5699 72.2818 32.9673 71.9881 32.327 71.8751C26.964 70.8884 21.9323 71.5738 17.0814 75.6413C13.8425 78.3379 13.5563 78.3379 11.9142 81.4262C9.87292 85.3129 8.78073 85.9456 5.33088 96.0843C4.79608 97.6585 4.64543 98.3892 4.14076 98.0803C3.63609 97.7715 3.95245 97.1313 4.27635 96.0843C5.78283 91.4217 5.09738 93.576 6.75451 89.3879C8.87111 84.0399 7.43242 87.1809 8.63761 85.0116C11.5828 79.7389 12.095 78.368 13.9103 76.7938C18.2866 72.9673 20.6895 70.9335 27.1297 70.3761C27.9582 70.3084 26.3237 69.1484 27.8829 66.0676C28.2337 65.0707 28.9351 64.2354 29.8564 63.7175C31.1228 63.1011 32.4909 62.7207 33.8938 62.5952C34.5265 62.663 34.4436 62.2939 35.0161 60.5238C35.2119 59.9212 34.0971 60.8251 33.4343 59.5747C33.0275 58.8214 30.685 59.8835 28.5684 56.396C28.3845 56.02 28.3264 55.5948 28.4026 55.1833C28.7115 53.0893 23.9284 51.3644 25.1863 46.0163C25.6081 44.2161 22.8663 44.8564 23.2881 38.4839C23.3559 37.5575 21.5105 38.2278 21.4427 36.2242C21.39 34.7177 21.3523 34.3261 21.8419 34.1754C22.211 34.07 21.5632 33.505 21.6837 30.4921C21.7967 27.8105 20.9305 27.2456 22.211 23.2082C23.612 18.8319 27.8678 16.0072 28.8471 15.1184C33.2384 11.0585 39.1665 10.034 39.1665 9.55951C39.2267 7.98523 40.3716 6.82524 43.1285 7.29978C44.635 7.54835 44.0324 8.7686 44.9212 8.61042C52.9508 7.15667 54.1334 7.85718 60.6639 9.80808C61.8592 10.2449 62.9701 10.8845 63.9481 11.6987C65.2964 12.6629 65.6504 12.6855 66.5317 14.2296C68.0382 16.9262 68.0382 16.9865 68.2717 16.9111C71.7065 15.5176 77.3784 14.0865 81.0768 14.094C83.2235 14.094 84.7752 14.4104 85.0539 16.5119C85.2949 18.3498 85.423 18.3875 85.2347 19.6228C85.0991 20.5192 74.8776 25.4228 74.0415 25.8144C69.5221 27.9009 69.5823 27.577 69.6576 28.0139C70.3205 31.7274 70.087 31.5918 70.5088 31.8328C72.4296 32.9326 71.5709 34.0926 70.7423 33.4749C70.4787 33.2715 70.3732 33.1284 70.3205 33.1284C70.2678 33.1284 70.3205 33.2866 70.2602 33.7235C69.8384 39.1317 69.6878 39.7494 70.1623 40.7135C70.6369 41.6777 72.1584 41.994 73.2205 41.9489C75.2994 41.866 76.4971 43.96 74.8324 46.9353C74.389 47.7127 73.6963 48.3177 72.8664 48.6527C71.7893 49.0444 73.1753 50.2872 71.2319 60.5765C71.0888 61.3297 70.4787 62.9567 70.2678 63.7627C69.4618 66.8359 65.7031 67.8227 62.6525 66.6853C54.9845 63.8154 55.7905 63.5367 54.8037 66.0149C53.478 69.4195 53.478 69.299 53.9074 69.5175C55.9863 70.5946 55.4741 70.572 56.6416 72.0182C58.4419 74.2779 56.9203 78.24 57.6359 78.5036C60.1054 79.4584 62.3647 80.8861 64.287 82.7067C69.1153 87.3241 67.9403 87.1809 68.8969 86.4729C69.9927 85.5438 70.9761 84.4896 71.827 83.3319C73.6197 81.1249 73.3335 81.2379 74.7194 77.306C75.2085 76.1786 75.6016 75.0119 75.8945 73.8185C76.0828 72.5831 76.6477 71.8299 77.4763 68.8847C77.7776 67.8377 78.2295 67.1598 81.8752 63.017C84.4061 60.1547 84.6923 59.9588 86.1009 59.6425C87.9087 59.2357 88.2024 59.4617 89.0611 58.942C93.8216 56.0646 96.4052 58.2716 109.7 64.0791C124.644 70.6097 118.776 67.6645 127.16 71.845C138.361 77.434 140.093 77.9387 141.155 80.3641C142.662 83.9269 142.473 84.4166 142.187 85.9833C142.006 86.9776 142.73 86.2545 143.49 89.5235ZM141.878 94.7359C142.632 92.8001 143.068 92.0243 142.767 90.9697C141.449 86.3373 142.225 86.9474 139.973 91.6401C139.363 92.9206 140.086 91.271 136.719 97.9975C136.223 99.0029 135.489 99.8717 134.58 100.528C133.672 101.185 132.616 101.609 131.506 101.764C130.173 101.922 130.414 100.852 130.346 100.687C129.932 99.632 130.776 98.7357 130.934 98.1029C131.905 94.2689 134.173 94.3367 136.206 90.3973C136.747 89.5113 137.058 88.504 137.11 87.4672C137.11 85.1623 135.604 84.6877 135.046 85.5313C133.736 87.437 133.322 89.1243 131.28 90.6233C129.239 92.1222 130.03 93.3199 127.235 95.7076C125.488 97.2141 123.334 100.227 123.206 102.592C123.138 103.745 122.528 104.136 121.978 106.456C121.759 107.368 121.624 108.294 121.435 109.213C119.733 117.303 119.861 116.437 120.757 116.55C126.505 117.235 125.006 117.913 126.61 116.844C127.227 116.406 127.951 116.145 128.704 116.088C129.458 116.031 130.213 116.18 130.889 116.52C133.902 118.433 130.58 118.139 136.161 113.913C138.481 112.158 139.114 110.253 139.769 109.221C140.422 108.336 140.95 107.365 141.336 106.336C141.771 105.213 141.976 104.014 141.939 102.811C141.811 101.41 142.436 99.9408 142.368 99.4964C141.984 96.5889 141.374 96.0842 141.878 94.7359ZM139.438 90.2165C140.387 88.2581 141.924 85.0869 141.095 83.0833C140.206 80.9592 139.814 79.4602 138.474 78.7597C138.474 78.7597 127.311 72.6133 119.854 69.4497C97.2187 59.891 95.667 58.0607 91.9837 58.6934C90.8717 58.8754 89.8717 59.4765 89.1892 60.3731C88.6694 61.051 88.0894 62.1282 86.9295 63.8606C86.9075 63.888 86.8897 63.9184 86.8767 63.951H86.9596C89.7315 62.7534 89.6411 62.8287 89.6712 62.5726C89.9123 60.6066 92.5411 59.989 93.5203 61.2469C93.7993 61.5554 93.9854 61.9365 94.0572 62.3462C94.129 62.7559 94.0835 63.1776 93.926 63.5626C93.7686 63.9476 93.5055 64.2802 93.1672 64.5222C92.8289 64.7642 92.4291 64.9056 92.0138 64.9302C91.5544 64.9302 91.8858 65.6307 90.9518 66.7832C90.2521 67.8172 89.2256 68.5865 88.0367 68.9676C91.7427 71.7019 88.2627 74.2403 86.47 73.2535C86.0309 72.9782 85.6703 72.5942 85.423 72.1387C84.843 72.892 84.7902 76.2439 84.7526 77.0499C84.7526 77.0951 84.9334 77.0499 85.3702 77.1628C86.139 77.4324 86.8932 77.7417 87.63 78.0893C88.323 78.334 88.9624 78.7099 89.5131 79.1966C89.7616 79.4979 89.7014 79.8067 89.4603 80.1909C88.9557 81.0044 88.7071 81.1098 87.1328 80.3867C84.0144 78.9556 84.2856 78.8049 84.1199 79.3548C83.8713 80.2436 83.7056 79.7163 84.4438 80.0327C87.5471 81.3735 87.871 81.5392 88.2551 81.9007C88.7674 82.3979 88.2552 84.0324 87.05 83.6332C82.3046 82.0137 83.5625 80.7181 82.3121 83.1662C82.3121 83.1662 80.5947 82.6088 121.646 102.133C123.281 102.886 120.66 100.882 126.362 95.0448C129.744 91.5799 128.26 91.6627 130.881 89.4859C132.282 88.3334 133.073 86.7516 134.278 84.7103C134.331 84.6199 134.466 84.522 134.391 84.3036C134.18 84.0218 134.039 83.6937 133.98 83.3465C133.921 82.9994 133.946 82.6432 134.052 82.3075C134.13 82.0022 134.27 81.7165 134.465 81.4687C134.66 81.2209 134.904 81.0166 135.182 80.8688C137.442 79.5356 140.523 82.3753 137.977 85.1924C137.314 85.9456 140.809 88.2581 133.548 95.6022C132.785 96.4536 132.265 97.4941 132.041 98.6151C131.393 100.348 130.941 100.928 131.499 100.769C134.632 99.8504 135.122 99.1123 139.438 90.209V90.2165ZM137.419 84.296C137.574 84.1437 137.696 83.9618 137.779 83.7612C137.862 83.5606 137.903 83.3455 137.901 83.1285C137.91 82.9307 137.879 82.7331 137.811 82.5471C137.743 82.3611 137.639 82.1904 137.505 82.0445C137.371 81.8987 137.21 81.7807 137.03 81.6972C136.851 81.6137 136.657 81.5664 136.459 81.558C136.261 81.5496 136.063 81.5802 135.877 81.6482C135.691 81.7161 135.521 81.82 135.375 81.954C135.229 82.0879 135.111 82.2493 135.027 82.4288C134.944 82.6084 134.897 82.8026 134.888 83.0005C134.888 83.588 135.287 84.0927 135.589 84.0851C137.148 84.0098 137.005 84.6953 137.419 84.2885V84.296ZM131.356 120.399C131.597 118.312 129.134 117.476 127.966 118.245C127.349 118.626 126.908 119.237 126.74 119.942C126.572 120.648 126.69 121.392 127.07 122.011C128.004 123.713 131.062 122.922 131.356 120.391V120.399ZM121.42 104.144C121.654 104.249 121.94 103.451 121.955 103.172C121.488 102.788 116.923 100.913 113.142 98.9541C111.161 97.9146 105.098 95.1879 98.7704 92.1222C91.7728 88.7477 84.4588 85.0643 82.1991 84.1303C81.7321 84.0023 81.5287 84.8836 81.4459 84.9514C81.363 85.0191 93.4977 90.8718 104.985 96.3027C111.357 99.2855 117.684 102.442 121.42 104.144ZM92.4432 63.9811C92.7235 63.8412 92.9496 63.6122 93.0859 63.3301C93.2222 63.0479 93.2611 62.7285 93.1964 62.4219C93.0834 61.9474 92.6465 61.3448 92.1268 61.3523C90.9216 61.3523 90.4094 62.4671 90.6203 62.4671C92.1494 62.4671 91.5845 64.4255 92.4432 63.9811ZM90.6957 64.5009C90.6957 64.2297 90.5751 63.3258 89.9424 63.7476C88.8633 64.323 87.7545 64.841 86.6206 65.2993C82.8544 66.7154 83.6755 66.3463 82.2368 69.2388C81.1295 71.4985 78.8095 73.939 78.5835 72.6359C78.4932 72.1237 79.5477 71.5211 80.09 70.7076C81.6869 68.4479 81.9355 67.0318 82.4853 66.2333C83.8035 64.3201 84.9258 65.5479 86.0708 63.371C87.532 60.584 88.4661 59.9739 86.824 60.5238C85.7167 60.8928 85.2196 60.6895 83.3214 62.8513C78.9376 67.8603 78.6212 68.3876 78.3651 69.4045C78.0563 70.6398 77.3256 72.4174 76.9565 73.6527C76.5565 75.6136 75.9453 77.5255 75.1337 79.3548C73.9662 82.3677 73.7327 82.8423 71.6914 85.1171C69.1605 87.9267 68.7236 87.2864 69.3865 88.3711C70.893 90.8191 74.9153 96.3479 75.8794 97.7564C76.1807 98.1933 75.8267 98.1707 78.6438 92.7474C80.7001 88.7853 80.9789 88.8833 84.2103 87.2939C83.1651 86.7208 82.0831 86.2175 80.9713 85.7875C80.2633 85.4485 80.429 86.5859 78.0713 86.7968C77.8077 86.7968 77.5968 86.7441 77.5365 86.4126C77.3482 85.4033 79.4799 86.3223 80.7227 83.8516C82.8469 79.6485 83.2913 78.4509 83.6529 76.7184C83.6905 76.5301 83.5775 70.1577 86.6658 68.3801C87.8107 67.7925 90.4396 66.7079 90.6957 64.5009ZM88.9255 79.6033C88.9783 79.2569 87.6902 78.7898 87.2006 78.5789C86.4474 78.24 85.3025 77.7428 85.1669 77.7278C85.0313 77.7127 84.9108 78.0215 84.8279 78.3454C84.7451 78.6693 85.0614 78.7823 88.21 80.1758C88.5339 80.3189 88.8803 79.9574 88.9255 79.6033ZM88.7372 71.4006C88.7619 71.0323 88.6505 70.6677 88.4242 70.3761C88.1979 70.0846 87.8723 69.8862 87.5094 69.8188C87.1025 69.8354 86.7139 69.9924 86.4097 70.2632C86.1732 70.6205 86.0474 71.0398 86.0482 71.4683C86.1331 71.7878 86.3108 72.075 86.5588 72.2935C86.8068 72.512 87.114 72.6521 87.4417 72.6961C87.7817 72.6849 88.1047 72.5447 88.3453 72.3042C88.5858 72.0636 88.7259 71.7406 88.7372 71.4006ZM87.7204 82.4732C87.7204 82.1192 87.8032 82.1945 85.4606 81.1475C84.5718 80.7558 84.0069 80.3942 83.7432 80.8462C83.6781 80.9425 83.6505 81.0593 83.6658 81.1745C83.6811 81.2898 83.7381 81.3954 83.8261 81.4714C84.8592 82.0756 85.94 82.5946 87.0575 83.0231C87.3739 83.1737 87.6978 82.8573 87.7204 82.4732ZM84.3609 18.9374C84.4739 18.8244 84.4664 18.8018 84.2103 16.9488C84.2103 16.6626 83.8261 17.1371 82.7038 17.9581C77.7173 21.649 56.7396 30.4695 41.027 34.1829C36.8314 34.9362 26.6099 36.3824 22.4746 35.4559C22.1809 35.3128 22.211 35.7873 22.3165 36.2092C22.4219 36.631 22.4972 36.9624 22.7458 37.0076C23.5518 37.2637 24.29 37.2411 27.1598 37.1959C35.3852 37.0754 34.1574 36.6084 39.9649 35.9305C39.9649 36.2468 59.8128 31.5165 78.0864 22.5755C81.9204 20.7451 82.7264 20.5794 84.3609 18.9374ZM83.0879 16.0298C83.4947 15.6608 82.9373 15.2766 82.6586 15.2766C77.6796 14.7041 68.8441 17.5363 68.5428 17.8075C69.1304 19.8638 69.2434 19.2537 70.1774 22.6358C70.3506 23.261 70.1246 23.163 73.3937 21.6565C75.9773 20.474 75.6534 20.7376 79.6155 18.6436C82.3949 17.1597 81.4383 17.5213 83.118 16.0298H83.0879ZM72.0981 47.9898C72.8993 47.6637 73.5731 47.0866 74.0186 46.3451C74.464 45.6036 74.6571 44.7376 74.5688 43.8771C74.4031 42.2276 72.6028 43.3875 70.8704 42.4686C69.4618 41.7153 69.0174 40.9621 69.0023 39.2221C69.0023 36.9172 69.7556 32.6388 69.2961 32.6087C68.7349 32.4911 68.1505 32.5682 67.639 32.8271C65.9894 33.8816 65.8914 35.0868 65.6278 35.9606C65.5223 36.3146 64.8746 36.3221 64.8746 35.6518C64.8746 33.6632 66.6899 31.2378 69.1454 31.4939C69.4091 31.4939 69.3187 30.9063 69.2509 30.3414C68.8818 27.2682 69.2509 27.7503 65.7408 29.2116C61.0255 31.1549 61.1008 30.9139 61.2213 31.3884C61.7146 33.3221 61.5203 35.3672 60.6715 37.1733C60.4154 37.6478 61.0632 38.5894 61.1385 39.2146C61.4548 41.8208 59.7751 41.7379 59.9032 42.7096C60.0614 43.9374 58.6001 44.7057 58.2084 44.0579C57.8167 43.4101 59.0972 43.3047 58.8712 42.5514C58.585 41.5496 59.4437 41.399 59.8354 40.7889C61.0255 38.9359 58.9466 38.3484 59.7902 36.6611C60.5448 35.0924 60.7619 33.3188 60.4078 31.6144C60.0689 30.5373 48.8757 36.0585 34.3834 37.8814C23.5593 39.2372 24.1092 36.7515 24.1393 39.5761C24.1393 41.8886 24.3803 42.2803 25.7663 44.0956C27.1523 45.9109 25.0583 47.3044 26.753 50.1215C27.3029 51.0405 28.6286 52.562 29.2161 53.4659C29.8037 54.3698 29.2689 55.3415 29.7585 56.0269C31.9278 59.0399 33.7958 57.3526 34.421 58.9043C34.5868 59.3035 34.986 58.7235 36.7486 59.1679C37.1726 59.2507 37.6052 59.2811 38.0366 59.2583C38.127 59.2583 38.2324 59.1152 38.2927 59.0097C38.353 58.9043 37.5395 58.4674 37.4189 58.3921C35.4379 57.4656 35.0161 55.6654 35.6262 55.4996C36.2363 55.3339 36.1309 56.637 37.8257 57.4279C39.5205 58.2188 40.4093 59.1755 42.1267 58.6105C42.5108 58.4825 42.1869 58.4674 41.4337 57.3978C41.027 56.8103 40.3038 55.3565 40.9667 55.2511C41.9233 55.108 40.929 55.8311 43.603 58.264C44.1378 58.7461 44.2584 58.5955 44.5145 57.9778C44.9412 57.1241 45.197 56.1953 45.2677 55.2435C45.2677 54.6711 46.3072 54.8142 46.2017 55.703C46.0963 56.5918 45.8628 57.4204 46.0511 57.3602C46.729 57.1417 48.115 57.2773 48.823 53.8049C48.8757 53.5186 48.8983 53.3153 49.2523 53.2851C49.3166 53.2697 49.3835 53.2695 49.4478 53.2846C49.5121 53.2998 49.572 53.3298 49.6225 53.3723C49.6731 53.4148 49.713 53.4686 49.739 53.5293C49.7649 53.5901 49.7763 53.6561 49.7721 53.722C49.8248 54.641 49.8549 54.7539 48.6799 57.0438C47.6781 58.9872 45.5991 57.8573 45.1095 59.0474C44.6199 60.2375 43.5352 59.424 43.1436 59.4994C41.1927 59.876 41.4262 60.0869 39.5431 59.5596C38.8878 59.3713 39.4903 60.3129 38.1797 60.4258C36.3117 60.5765 36.1158 59.9287 35.9727 60.4258C35.6564 61.5708 35.6187 61.4879 34.8654 64.2523C34.7148 64.8172 42.669 65.2616 43.9043 65.5554C46.4051 66.1429 50.3446 67.3557 52.544 68.6964C53.0939 69.0203 54.1861 62.6705 55.8507 63.1676C64.3096 65.8266 68.1964 69.284 70.2301 60.1547C71.0888 56.7609 71.5339 53.2757 71.5558 49.775C71.5558 48.6904 71.7291 48.1405 72.0981 47.9898ZM69.2283 23.502C69.4769 23.3965 69.5145 23.6225 67.9704 19.4571C67.0514 16.9789 67.2171 17.687 65.6504 14.8322C65.1916 13.9265 64.4695 13.1807 63.579 12.693C59.9559 10.0943 61.5076 11.2392 57.877 9.89846C52.3482 7.84965 44.8082 9.35613 44.6425 9.89846C44.3111 11.0434 43.136 11.3221 41.9308 11.4049C39.7239 11.5857 39.8971 10.3805 38.6392 10.9982C37.8106 11.4049 33.9465 12.4369 30.4364 15.1561C27.5515 17.4158 24.2222 20.0672 23.1601 23.5622C22.731 24.6987 22.5091 25.9028 22.5048 27.1175C22.8588 34.2809 22.3391 35.0642 24.29 34.8684C23.9641 33.2764 23.7876 31.6574 23.7627 30.0326C23.9585 26.4321 23.5593 25.4002 26.8208 21.9955C28.4704 20.2706 36.2138 18.6587 39.0233 20.489C41.8329 22.3194 42.7895 24.6394 43.5428 27.7427C43.8441 28.9479 44.5145 31.1173 44.7028 32.2622C52.6495 30.0401 63.9707 25.6487 69.2283 23.502ZM56.491 74.3909C56.5437 73.2309 55.6474 72.5455 55.1804 71.6943C54.8565 71.1143 54.5627 71.0013 52.1674 69.653C47.8212 67.2728 43.9345 66.6853 39.9197 66.2107C37.208 65.8944 35.7015 65.6232 33.6603 65.5629C32.3195 65.5253 30.5946 65.7964 29.8263 65.1637C29.4421 64.8474 27.5665 68.7491 28.5608 70.3234C28.9944 70.4776 29.4492 70.564 29.9091 70.5795C33.6301 70.8582 31.8224 70.9034 38.948 72.425C43.234 73.3364 43.8667 73.9314 46.0737 74.534C49.3578 75.4003 48.8531 74.8203 56.1144 77.7956C56.6266 77.9989 56.3177 77.8408 56.491 74.3909ZM41.3283 10.3655C42.3376 10.4483 43.7462 10.3127 43.7085 9.24315C43.7085 8.28653 42.4581 8.15095 41.4488 8.2564C39.9197 8.39952 39.8519 10.2374 41.3132 10.3504L41.3283 10.3655ZM43.7838 32.4882C43.6479 31.8094 43.477 31.1381 43.2716 30.477C42.1794 27.8256 41.6446 19.427 33.6678 20.7753C32.3722 20.9937 31.0013 20.7301 28.011 22.2365C26.472 23.2734 25.3406 24.8122 24.8097 26.5903C24.4109 29.3505 24.5336 32.161 25.1712 34.8759C25.5479 34.8307 25.9847 34.8759 26.4969 34.8759C26.7907 34.8759 26.6476 34.6575 26.271 32.9853C25.0959 27.7653 26.4367 26.4547 27.2653 25.1516C28.3349 23.4794 29.7057 23.0274 31.9504 22.6885C33.3863 22.4753 34.8457 22.4753 36.2815 22.6885C37.7052 23.0952 39.3472 24.3004 40.6127 28.609C41.509 31.6219 41.5467 33.0305 41.9082 32.9476C42.4958 32.797 43.1134 32.6388 43.7688 32.4731L43.7838 32.4882ZM39.6184 33.4071C40.3716 33.1962 40.8688 33.0983 40.8161 32.9024C40.0628 30.1908 39.641 27.2908 37.9688 25.0913C36.4623 23.0877 34.6545 23.4945 32.8694 23.5848C31.3629 23.6752 29.0429 24.1272 28.1013 25.4152C27.457 26.1461 26.9996 27.0223 26.7681 27.9687C26.6777 28.6165 26.5572 30.5599 27.5741 34.6876C27.6795 35.1245 36.4623 34.3261 39.6184 33.4071Z" fill="#000001"/>
<path d="M132.306 86.141C132.306 87.4064 131.191 88.702 130.129 88.6794C129.47 88.6668 128.841 88.4047 128.369 87.9461C127.896 87.4875 127.615 86.8665 127.583 86.2088C127.561 85.8881 127.604 85.5662 127.711 85.2629C127.817 84.9595 127.984 84.6811 128.202 84.4445C128.419 84.2079 128.683 84.0182 128.976 83.8869C129.27 83.7556 129.587 83.6855 129.908 83.6809C130.23 83.6763 130.549 83.7373 130.846 83.8601C131.143 83.9829 131.412 84.165 131.636 84.3952C131.861 84.6254 132.036 84.899 132.151 85.1991C132.266 85.4993 132.319 85.8198 132.306 86.141ZM131.356 86.141C131.345 85.7995 131.206 85.4747 130.966 85.2317C130.725 84.9887 130.402 84.8453 130.061 84.8303C129.665 84.8417 129.288 85.0041 129.008 85.2842C128.728 85.5643 128.566 85.9409 128.554 86.3368C128.609 86.7128 128.798 87.0563 129.086 87.3041C129.373 87.5519 129.741 87.6872 130.121 87.6851C130.618 87.6927 131.326 86.8189 131.356 86.156V86.141Z" fill="#000001"/>
<path d="M120.743 86.4282C122.144 85.0121 123.665 87.1815 123.123 87.9347C121.925 89.637 119.447 87.7389 120.743 86.4282ZM122.641 87.4301C122.641 87.0986 122.136 86.594 121.767 86.5789C120.826 86.5789 120.622 87.9573 121.956 87.9799C122.116 87.9831 122.273 87.9298 122.398 87.8293C122.523 87.7288 122.609 87.5875 122.641 87.4301Z" fill="#000001"/>
<path d="M123.801 74.0216C121.979 73.1931 110.16 67.9957 108.676 67.3027C101.619 64.1391 98.6884 61.8417 97.7017 63.8679C93.7321 72.0481 90.3124 80.1379 89.0394 82.8948C88.1732 84.7628 89.7098 84.7402 98.8316 89.0563C112.571 95.5266 117.361 97.9822 119.064 98.8484C120.043 99.3305 120.743 99.0518 121.09 98.4793C121.843 97.2666 122.815 94.2386 125.609 88.1449C129.511 79.6107 128.02 83.7836 130.174 78.0063C130.679 76.7107 130.37 77.0044 123.801 74.0216ZM128.999 78.8499C128.999 78.9629 128.675 79.7613 128.502 79.814C128.072 79.9141 127.632 79.9647 127.191 79.9647C127.025 79.9647 127.131 79.332 127.123 79.1587C127.123 78.5863 127.123 78.5863 127.666 78.5938C128.208 78.6013 129.044 78.5109 128.999 78.8499ZM129.368 77.9159C128.562 78.1946 129.247 78.0213 127.048 78.0515C126.822 78.0515 126.641 78.0515 126.588 78.172C126.536 78.2925 126.634 78.5938 126.423 78.639C126.173 78.6747 125.919 78.6747 125.67 78.639C125.594 78.639 125.579 78.4883 125.526 78.4507C125.438 78.2298 125.277 78.0451 125.071 77.9263C124.865 77.8074 124.625 77.7613 124.389 77.7954C124.185 77.7969 123.984 77.8493 123.805 77.948C123.626 78.0466 123.475 78.1883 123.365 78.3603C123.365 78.4055 123.365 78.5486 123.229 78.5486C122.973 78.5486 122.476 78.6239 122.416 78.5486C122.371 78.3841 122.348 78.2144 122.348 78.0439C122.28 77.3735 121.783 77.5091 120.276 77.5242C119.184 77.5242 118.582 77.3961 118.469 78.1117C118.31 79.0608 118.325 79.8216 119.018 79.8818C122.084 80.1681 122.333 80.3488 122.431 79.4148C122.431 79.2943 122.348 79.0231 122.513 79.0533C122.822 79.0533 122.935 79.0005 123.146 79.1135C123.199 79.1135 123.184 79.2943 123.206 79.4148C123.276 79.6744 123.429 79.9038 123.642 80.0675C123.855 80.2311 124.117 80.3198 124.385 80.3198C124.654 80.3198 124.915 80.2311 125.128 80.0675C125.341 79.9038 125.495 79.6744 125.564 79.4148C125.617 79.2868 125.564 79.1738 125.7 79.1286C125.928 79.0833 126.164 79.0833 126.393 79.1286C126.475 79.1286 126.453 79.2416 126.468 79.3244C126.468 79.5429 126.468 79.9346 126.513 80.1982C126.558 80.4618 126.596 80.492 126.897 80.492C129.421 80.492 128.404 79.0909 123.252 91.1202C121.037 96.2949 120.555 98.4793 119.613 98.0425C109.708 93.4402 122.702 99.2627 90.689 84.2808C89.1825 83.5275 89.7249 83.7083 92.3311 77.8179C92.6324 77.1551 94.7791 71.4907 98.2064 64.6739C99.05 62.9942 97.0916 63.0695 124.344 75.2193C129.88 77.6899 128.991 77.1174 129.368 77.9159ZM124.389 79.8442C124.287 79.8397 124.186 79.8151 124.093 79.7719C124 79.7286 123.917 79.6674 123.848 79.5919C123.778 79.5163 123.725 79.4279 123.69 79.3316C123.655 79.2353 123.639 79.133 123.643 79.0307C123.648 78.9283 123.672 78.8278 123.716 78.7349C123.759 78.642 123.82 78.5586 123.896 78.4893C123.971 78.4201 124.06 78.3664 124.156 78.3313C124.252 78.2963 124.354 78.2805 124.457 78.285C125.391 78.2548 125.285 79.8442 124.389 79.8442ZM121.233 79.46C119.071 79.3018 118.627 79.6408 119.056 78.0891C119.056 78.0138 119.433 77.9912 119.636 77.9912C121.896 77.9385 121.896 77.8405 121.896 78.8122C121.911 79.5504 121.881 79.5278 121.271 79.4826L121.233 79.46Z" fill="#000001"/>
<path d="M116.856 80.7705C117.174 80.8278 117.463 80.9906 117.676 81.2326C117.889 81.4746 118.014 81.7816 118.031 82.1037C118.024 82.4613 117.876 82.8015 117.618 83.0494C117.36 83.2973 117.014 83.4327 116.657 83.4257C116.299 83.4187 115.959 83.2699 115.711 83.0121C115.463 82.7543 115.328 82.4086 115.335 82.051C115.397 81.6925 115.584 81.3675 115.862 81.1332C116.14 80.8989 116.492 80.7705 116.856 80.7705ZM116.751 82.857C116.9 82.8431 117.041 82.7853 117.157 82.6909C117.273 82.5965 117.358 82.4697 117.401 82.3268C117.445 82.1838 117.445 82.0312 117.402 81.8882C117.358 81.7452 117.273 81.6183 117.158 81.5237C116.946 81.4412 116.713 81.4335 116.496 81.502C116.28 81.5705 116.093 81.7111 115.967 81.9004C115.741 82.3372 116.148 82.857 116.751 82.857Z" fill="#000001"/>
<path d="M116.285 88.6345C115.344 90.3519 114.41 91.527 112.662 91.9187C112.406 91.9187 112.225 91.6626 112.406 91.527C112.873 91.1955 113.31 91.527 114.884 89.787C115.284 89.3825 115.583 88.8897 115.758 88.3483C115.999 87.9265 116.428 88.3634 116.285 88.6345Z" fill="#000001"/>
<path d="M114.288 87.3763C114.316 87.3403 114.352 87.3112 114.393 87.2912C114.434 87.2711 114.479 87.2607 114.525 87.2607C114.571 87.2607 114.616 87.2711 114.657 87.2912C114.698 87.3112 114.734 87.3403 114.762 87.3763C114.725 88.22 114.326 88.6794 112.081 90.4872C111.908 90.6002 111.463 90.8187 111.275 90.7433C111.243 90.7313 111.214 90.7116 111.191 90.6859C111.168 90.6601 111.152 90.6292 111.144 90.5958C111.136 90.5624 111.136 90.5274 111.144 90.4941C111.153 90.4607 111.169 90.4299 111.192 90.4044C111.576 89.9901 112.043 90.1483 113.497 88.5062C113.802 88.1603 114.067 87.7813 114.288 87.3763Z" fill="#000001"/>
<path d="M113.482 71.3997C115.185 71.3997 114.921 73.9532 113.354 73.9607C112.722 73.9607 111.983 73.2677 112.051 72.6802C112.084 72.3253 112.249 71.9959 112.515 71.7583C112.78 71.5206 113.126 71.3925 113.482 71.3997ZM113.362 73.3958C114.115 73.3958 114.484 71.9948 113.513 71.9496C112.33 71.9044 112.3 73.3732 113.362 73.3958Z" fill="#000001"/>
<path d="M112.465 86.5482C112.489 86.5211 112.52 86.5003 112.554 86.4879C112.588 86.4754 112.625 86.4717 112.66 86.4769C112.696 86.4821 112.73 86.4962 112.759 86.5179C112.788 86.5395 112.812 86.568 112.827 86.6009C112.864 86.6669 112.887 86.7396 112.894 86.8147C112.902 86.8898 112.895 86.9657 112.872 87.0378C112.42 88.5443 111.117 89.8173 109.95 89.9604C109.874 89.9604 109.844 89.9604 109.784 89.885C109.752 89.8583 109.73 89.8209 109.724 89.7796C109.724 89.7344 109.724 89.5762 109.769 89.5536C110.947 88.9516 111.863 87.9386 112.345 86.7064C112.376 86.6476 112.417 86.5941 112.465 86.5482Z" fill="#000001"/>
<path d="M112.631 74.0449C112.684 74.5119 112.631 74.5421 112.322 74.8735C112.298 74.8974 112.266 74.9109 112.232 74.9109C112.198 74.9109 112.165 74.8974 112.141 74.8735C111.983 74.6927 111.938 74.6852 112.405 73.9922C112.484 73.9866 112.563 74.0049 112.631 74.0449Z" fill="#000001"/>
<path d="M111.757 75.3252C111.839 75.3252 111.915 75.4382 112.035 75.5512C112.053 75.5694 112.063 75.5937 112.063 75.619C112.063 75.6442 112.053 75.6685 112.035 75.6868L111.636 76.1613C111.617 76.1811 111.594 76.1969 111.569 76.2077C111.544 76.2184 111.517 76.224 111.489 76.224C111.462 76.224 111.435 76.2184 111.409 76.2077C111.384 76.1969 111.361 76.1811 111.342 76.1613C111.295 76.1256 111.26 76.0753 111.244 76.0182C111.214 75.7997 111.598 75.3252 111.757 75.3252Z" fill="#000001"/>
<path d="M111.146 76.7564C111.226 76.8177 111.28 76.9076 111.295 77.0072C111.311 77.1068 111.287 77.2085 111.229 77.2912C110.845 77.8486 110.702 78.0971 110.521 77.954C110.34 77.8109 110.363 77.6753 110.898 76.8091C110.931 76.7788 110.971 76.7579 111.015 76.7486C111.059 76.7393 111.104 76.742 111.146 76.7564Z" fill="#000001"/>
<path d="M110.184 78.6103C110.251 78.6549 110.299 78.7218 110.322 78.7991C110.344 78.8763 110.338 78.9589 110.304 79.0321C110.048 79.4916 109.913 79.7853 109.664 79.6573C109.416 79.5292 109.852 78.4898 110.184 78.6103Z" fill="#000001"/>
<path d="M109.339 80.2266C109.397 80.2605 109.444 80.3101 109.475 80.3697C109.502 80.4053 109.517 80.449 109.517 80.494C109.517 80.539 109.502 80.5827 109.475 80.6183C109.09 81.2359 108.88 81.6201 108.721 81.4242C108.563 81.2284 108.593 81.0777 109.09 80.3019C109.123 80.2711 109.163 80.2483 109.206 80.2353C109.249 80.2222 109.295 80.2192 109.339 80.2266Z" fill="#000001"/>
<path d="M109.573 86.4192C109.506 87.4511 109.483 87.1724 108.067 87.5867C107.472 87.7524 107.449 87.4134 107.163 85.794C107.05 85.1462 107.163 85.3797 105.574 86.3664C104.986 86.7355 105.061 86.4568 104.466 85.2592C104.21 84.7545 104.233 84.9202 108.135 81.8997C108.722 81.4628 108.926 81.847 109.573 86.4192ZM108.067 86.9766C109.438 86.7581 109.189 86.9163 108.368 82.8337C108.263 82.2763 108.315 82.5098 105.446 84.7319C104.979 85.101 104.971 85.0784 105.272 85.6132C105.37 85.794 105.438 85.794 105.596 85.681C107.638 84.2272 107.412 84.3025 107.909 86.6903C107.909 86.7958 108.007 86.9841 108.044 86.9766H108.067Z" fill="#000001"/>
<path d="M106.357 70.3379C106.641 70.365 106.907 70.4944 107.103 70.7022C107.3 70.9099 107.415 71.1819 107.426 71.4678C107.392 71.7953 107.248 72.1015 107.016 72.3357C106.785 72.5699 106.48 72.7181 106.153 72.7558C105.867 72.7182 105.606 72.574 105.421 72.3519C105.237 72.1299 105.143 71.8463 105.159 71.5581C105.211 71.2573 105.354 70.9796 105.568 70.7617C105.782 70.5437 106.057 70.3959 106.357 70.3379ZM106.861 71.4452C106.861 71.2418 106.575 70.8953 106.349 70.9028C106.255 70.9066 106.162 70.9293 106.077 70.9694C105.991 71.0096 105.915 71.0664 105.851 71.1366C105.788 71.2068 105.74 71.2889 105.709 71.3781C105.678 71.4673 105.665 71.5618 105.671 71.6561C105.687 71.8111 105.751 71.9574 105.853 72.0747C105.956 72.1921 106.092 72.2748 106.244 72.3114C106.435 72.2681 106.604 72.1559 106.718 71.9961C106.832 71.8363 106.883 71.6402 106.861 71.4452Z" fill="#000001"/>
<path d="M105.453 81.4632C105.912 82.3294 105.935 82.4801 105.875 82.6533C105.854 82.7033 105.816 82.7436 105.767 82.7661C105.718 82.7885 105.662 82.7913 105.611 82.7738C105.385 82.691 105.347 82.4951 105.001 81.7344C104.858 81.4707 105.182 81.064 105.453 81.4632Z" fill="#000001"/>
<path d="M105.017 80.0104C105.052 80.0969 105.053 80.1934 105.021 80.2811C104.989 80.3687 104.926 80.4414 104.843 80.485C104.779 80.484 104.715 80.4669 104.659 80.4354C104.602 80.4038 104.554 80.3588 104.519 80.3042C104.052 79.3099 104.045 79.1066 104.241 78.8956C104.437 78.6847 104.768 79.438 105.017 80.0104Z" fill="#000001"/>
<path d="M103.494 76.4991C103.679 76.8457 103.83 77.2089 103.946 77.5838C103.96 77.6503 103.95 77.7196 103.918 77.7794C103.885 77.8392 103.833 77.8854 103.769 77.9099C103.706 77.9344 103.636 77.9355 103.572 77.913C103.507 77.8905 103.453 77.8459 103.419 77.7871C103.344 77.6289 103.231 77.3427 102.967 76.7401C102.949 76.704 102.939 76.664 102.939 76.6234C102.939 76.5828 102.949 76.5428 102.967 76.5066C103.02 76.4313 103.073 76.356 103.125 76.356C103.194 76.3457 103.264 76.3535 103.329 76.3786C103.394 76.4037 103.451 76.4452 103.494 76.4991Z" fill="#000001"/>
<path d="M103.095 82.7593C103.132 82.754 103.169 82.7574 103.204 82.7692C103.239 82.7811 103.27 82.8011 103.296 82.8276C103.322 82.854 103.341 82.8862 103.352 82.9215C103.363 82.9567 103.365 82.9941 103.359 83.0304C103.011 83.5279 102.755 84.0842 102.605 84.6725C102.44 85.5387 102.794 86.2392 102.447 86.2769C102.101 86.3146 101.83 85.3353 102.116 84.4164C102.44 83.3619 102.523 82.8572 103.095 82.7593Z" fill="#000001"/>
<path d="M103.035 74.8046C103.071 74.8854 103.077 74.9769 103.051 75.0616C103.024 75.1463 102.968 75.2184 102.892 75.2641C102.84 75.2761 102.787 75.2741 102.736 75.2582C102.686 75.2423 102.641 75.2131 102.605 75.1737C102.101 74.0965 101.92 73.7124 102.191 73.5843C102.462 73.4563 102.53 73.7049 103.035 74.8046Z" fill="#000001"/>
<path d="M101.725 71.4691C101.935 71.9135 102.312 72.6893 101.973 72.7345C101.634 72.7797 101.619 72.5613 101.34 71.8984C101.307 71.8114 101.302 71.7162 101.324 71.6258C101.347 71.5355 101.398 71.4544 101.468 71.3938C101.514 71.3832 101.562 71.3845 101.606 71.3977C101.651 71.4109 101.692 71.4355 101.725 71.4691Z" fill="#000001"/>
<path d="M100.353 66.7758C100.583 66.8038 100.803 66.8883 100.992 67.0217C101.182 67.1551 101.336 67.3333 101.44 67.5405C101.545 67.7477 101.596 67.9774 101.591 68.2093C101.585 68.4412 101.522 68.6681 101.407 68.8698C101.181 69.1357 100.87 69.3148 100.526 69.3766C100.183 69.4384 99.8286 69.3791 99.524 69.2088C99.2735 69.1101 99.0632 68.9305 98.9267 68.6984C98.7901 68.4663 98.7353 68.1952 98.7708 67.9283C98.816 67.0394 99.9383 66.7005 100.353 66.7758ZM101.106 68.1919C101.078 67.9874 100.992 67.7952 100.859 67.6378C100.725 67.4803 100.55 67.3642 100.353 67.3031C100.179 67.2714 99.9999 67.2917 99.8378 67.3613C99.6756 67.431 99.5377 67.547 99.4412 67.6948C98.9139 68.3501 99.5014 68.8246 100.157 68.915C100.267 68.9354 100.381 68.9324 100.49 68.9063C100.599 68.8802 100.702 68.8316 100.791 68.7635C100.881 68.6954 100.955 68.6094 101.009 68.5109C101.063 68.4125 101.096 68.3038 101.106 68.1919Z" fill="#000001"/>
<path d="M101.054 69.7739C101.189 69.9622 101.506 70.4744 101.325 70.625C101.144 70.7757 100.941 70.5497 100.677 70.1429C100.631 70.0754 100.61 69.9938 100.618 69.9125C100.627 69.8312 100.664 69.7554 100.722 69.6985C100.813 69.6157 100.933 69.5855 101.054 69.7739Z" fill="#000001"/>
<path d="M100.18 83.7611C100.233 82.9099 100.459 82.0437 101.114 82.0286C101.155 82.0264 101.196 82.036 101.232 82.0561C101.268 82.0763 101.298 82.1062 101.318 82.1425C101.337 82.1787 101.346 82.2198 101.344 82.261C101.341 82.3022 101.327 82.3417 101.303 82.3751C100.979 82.6802 100.784 83.0983 100.76 83.5426C100.572 84.3701 100.619 85.2336 100.896 86.0359C100.903 86.0768 100.901 86.1188 100.891 86.1591C100.88 86.1993 100.862 86.2369 100.836 86.2694C100.727 86.2652 100.622 86.2265 100.537 86.1587C100.451 86.091 100.39 85.9978 100.361 85.8927C100.19 85.196 100.129 84.4767 100.18 83.7611Z" fill="#000001"/>
<path d="M98.4399 73.2996C99.6225 73.8419 99.8786 74.0528 99.7053 74.4822C98.1989 78.0902 98.3043 77.6232 97.89 77.9772C97.0313 77.6533 96.0747 77.4575 96.3308 76.8624C97.9202 73.1866 97.9729 73.0661 98.4399 73.2996ZM97.9277 77.1185C99.4342 73.8419 99.4342 74.437 98.3194 73.857C97.9277 74.452 98.4098 73.5783 97.1142 76.3201C96.7376 77.111 96.7752 77.0733 97.4984 77.239C97.7017 77.2918 97.8298 77.3294 97.9202 77.1185H97.9277Z" fill="#000001"/>
<path d="M94.7348 68.5458C94.7232 69.0808 94.505 69.5906 94.1258 69.9683C93.7467 70.346 93.2361 70.5624 92.701 70.572C92.1467 70.5863 91.609 70.3816 91.2044 70.0024C90.7998 69.6232 90.5608 69.0999 90.5392 68.5458C90.3886 65.8793 94.4711 65.352 94.7348 68.5458ZM93.8384 68.5458C93.8444 68.2241 93.7224 67.9133 93.4992 67.6816C93.3887 67.5669 93.2567 67.4751 93.1107 67.4114C92.9647 67.3477 92.8076 67.3134 92.6483 67.3104C92.489 67.3075 92.3308 67.3359 92.1825 67.3941C92.0342 67.4523 91.8989 67.5392 91.7842 67.6497C91.5525 67.8729 91.419 68.1789 91.413 68.5006C91.3898 68.6618 91.4002 68.8261 91.4435 68.9832C91.4868 69.1402 91.5621 69.2867 91.6646 69.4133C91.7672 69.5398 91.8948 69.6439 92.0394 69.7188C92.1841 69.7938 92.3426 69.8381 92.5052 69.8489C92.6822 69.8469 92.8572 69.8101 93.02 69.7405C93.1829 69.6709 93.3304 69.5699 93.4542 69.4433C93.578 69.3167 93.6756 69.167 93.7416 69.0026C93.8075 68.8383 93.8404 68.6626 93.8384 68.4855V68.5458Z" fill="#000001"/>
<path d="M90.3887 76.0033C91.3679 76.4853 90.8331 77.9692 89.8539 78.0521C89.1007 77.8186 89.5903 78.0521 86.0877 76.4853C85.0483 76.0033 85.4776 74.8056 86.0877 74.429C86.5171 74.1578 86.6828 74.1654 90.3887 76.0033ZM89.7409 77.5098C90.11 77.6755 90.3511 76.6887 90.2155 76.6059C90.0799 76.523 86.8711 75.0316 86.615 74.9864C86.5071 74.9818 86.4015 75.018 86.3191 75.0878C86.2368 75.1576 86.1837 75.2559 86.1706 75.363C86.1525 75.4654 86.1603 75.5707 86.1932 75.6693C86.226 75.768 86.283 75.8569 86.3589 75.9279C87.4439 76.5372 88.5746 77.061 89.7409 77.4947V77.5098Z" fill="#000001"/>
<path d="M69.7947 53.5778C70.1638 53.7435 70.2391 54.0825 70.081 54.4892C69.4614 56.179 68.6581 57.7956 67.6856 59.31C67.1057 60.1686 66.1792 60.5679 65.5841 60.0105C64.1454 58.6396 64.2961 54.2181 63.6332 51.1524C63.4901 50.4744 63.8818 50.1506 64.6124 50.61C67.7911 52.6212 66.3599 51.9734 69.7947 53.5778ZM69.2524 54.8282C69.5838 54.0749 69.1168 54.1427 68.7929 53.9996C67.3342 53.2633 65.9207 52.4408 64.5597 51.5365C64.7405 52.9225 64.9589 56.9448 65.6142 58.7375C65.8929 59.4907 66.4202 59.664 66.8044 59.197C67.8295 57.8682 68.6543 56.3963 69.2524 54.8282Z" fill="#000001"/>
<path d="M67.2861 40.8342C67.7757 41.03 67.7682 41.7004 67.6176 42.2051C67.4142 42.8604 66.3973 42.9583 66.3145 41.8963C66.4726 41.384 66.5706 40.5555 67.2861 40.8342Z" fill="#000001"/>
<path d="M57.4338 51.0637C57.6748 52.3744 56.2587 54.024 54.9782 54.4307C51.6263 55.4777 46.8583 51.7266 47.2801 46.3635C47.4081 44.6838 47.2801 43.682 48.0333 42.4918C49.6001 40.1342 52.5528 39.042 55.159 40.5937C56.2738 41.2641 57.4187 43.3731 56.7333 43.6066C56.1608 43.7799 56.1608 43.0116 55.3849 42.0022C54.2325 40.4732 51.0538 40.1493 48.9598 42.9363C48.1011 44.0887 48.2066 45.2412 48.2066 47.1017C47.8977 49.1128 49.713 52.5702 53.0574 53.4666C55.0987 54.0164 56.432 52.0731 56.4922 51.124C56.4883 51.0622 56.4965 51.0002 56.5165 50.9415C56.5365 50.8829 56.5679 50.8288 56.6088 50.7823C56.6497 50.7358 56.6994 50.6978 56.755 50.6704C56.8106 50.6431 56.871 50.627 56.9329 50.6231C56.9947 50.6191 57.0567 50.6274 57.1153 50.6474C57.1739 50.6674 57.2281 50.6987 57.2746 50.7397C57.3211 50.7806 57.3591 50.8303 57.3864 50.8859C57.4137 50.9415 57.4298 51.0019 57.4338 51.0637Z" fill="#000001"/>
<path d="M55.2723 45.8423C55.8147 47.0776 54.3458 47.7781 54.037 48.4033C53.9638 48.5433 53.9258 48.699 53.9263 48.857C53.9269 49.015 53.9659 49.1705 54.0401 49.31C54.1143 49.4495 54.2214 49.5688 54.3521 49.6576C54.4829 49.7463 54.6332 49.8019 54.7903 49.8194C54.906 49.8477 55.0076 49.9167 55.0768 50.0137C55.1459 50.1107 55.1779 50.2293 55.167 50.3479C55.156 50.4666 55.1029 50.5773 55.0171 50.66C54.9314 50.7427 54.8188 50.7919 54.6999 50.7986C53.4947 51.002 51.7622 48.8628 53.9466 46.8516C54.3835 46.4599 54.3534 46.3922 54.1199 45.8573C52.9222 43.2436 51.2274 43.7709 50.8056 44.8555C50.6862 45.2277 50.5931 45.6077 50.5269 45.9929C50.6776 45.9929 50.6248 46.7462 50.3461 46.7462C50.2482 46.7462 49.9319 46.6483 49.8791 46.4976C48.9602 43.688 52.862 40.4114 55.2723 45.8423Z" fill="#000001"/>
<path d="M43.1296 53.1951C43.1748 54.0387 42.3312 53.5793 42.301 53.3683C42.2219 52.1997 42.2219 51.0269 42.301 49.8582C42.301 49.5419 42.1654 48.9468 42.7002 48.8112C43.687 48.5551 43.0618 52.0426 43.1296 53.1951Z" fill="#000001"/>
<path d="M40.4408 53.6918C40.4408 54.6785 39.2657 54.2869 38.8816 53.0214C38.1283 50.5734 37.7291 51.1157 37.8346 50.4604C37.9174 49.9181 38.4221 50.0386 38.633 50.242C39.454 51.0253 39.2657 51.3568 40.4408 53.6918Z" fill="#000001"/>
<path d="M37.4275 54.3099C37.3446 54.4305 37.2768 54.6489 37.1412 54.7016C37.0506 54.7313 36.9546 54.7412 36.8598 54.7308C36.765 54.7205 36.6735 54.6899 36.5914 54.6414C33.1717 52.0276 34.9267 52.4946 33.5784 50.1219C33.2244 49.5118 33.7893 49.1578 34.2488 49.6248C35.6649 51.0861 34.4145 51.6209 36.3654 53.0445C36.7035 53.3085 37.0232 53.5954 37.322 53.9032C37.3597 53.971 37.3672 54.1216 37.4275 54.3099Z" fill="#000001"/>
<path d="M35.1985 31.7119C35.3265 32.3446 34.6862 32.3069 34.0535 32.3822C32.1252 32.4274 31.5528 30.5745 31.1008 31.0038C30.7755 31.0935 30.4328 31.1003 30.1041 31.0234C29.7755 30.9465 29.4714 30.7884 29.2196 30.5636C28.9679 30.3388 28.7765 30.0545 28.663 29.7366C28.5495 29.4187 28.5175 29.0775 28.5699 28.7441C28.5699 28.3901 28.6603 27.7649 28.9917 27.6368C29.745 27.3506 29.3156 28.4353 29.3759 29.1885C29.4211 29.8062 30.2723 30.4765 30.792 29.9417C30.9728 29.7384 30.9878 29.3768 31.3645 29.3768C32.2156 29.3768 31.3645 30.4163 33.3831 31.2825C33.9857 31.5537 35.0779 31.1319 35.1985 31.7119Z" fill="#000001"/>
<path d="M33.0052 54.7616C33.0656 54.7869 33.1204 54.8237 33.1664 54.8701C33.2125 54.9165 33.249 54.9715 33.2739 55.032C33.2987 55.0925 33.3114 55.1573 33.3112 55.2227C33.3109 55.2881 33.2979 55.3529 33.2726 55.4132C33.2474 55.4735 33.2105 55.5283 33.1642 55.5744C33.1178 55.6205 33.0627 55.657 33.0022 55.6818C32.9417 55.7067 32.8769 55.7193 32.8115 55.7191C32.7461 55.7189 32.6814 55.7058 32.6211 55.6806C31.1673 55.1835 31.2878 54.2419 31.0694 53.1196C30.851 51.9973 29.8567 51.6131 29.239 51.1536C28.0188 50.3175 28.3879 48.811 29.0055 48.8939C29.4876 48.8939 29.3821 49.489 29.3821 49.4739C29.1788 50.7695 31.0016 50.3552 31.8 52.2534C32.3047 53.4133 31.9507 54.3398 33.0052 54.7616Z" fill="#000001"/>
</svg>
